<?xml version="1.0" standalone="no"?>
<!DOCTYPE svg PUBLIC "-//W3C//DTD SVG 1.1//EN" "http://www.w3.org/Graphics/SVG/1.1/DTD/svg11.dtd" >
<svg xmlns="http://www.w3.org/2000/svg">
<metadata>Generated by IcoMoon</metadata>
<defs>
<font id="streamline" horiz-adv-x="1024">
<font-face units-per-em="1024" ascent="960" descent="-64" />
<missing-glyph horiz-adv-x="1024" />
<glyph unicode="&#x20;" horiz-adv-x="512" d="" />
<glyph unicode="&#xe900;" glyph-name="bin-1" d="M981.333 832h-298.667v106.667c0 11.776-9.557 21.333-21.333 21.333h-341.333c-11.776 0-21.333-9.557-21.333-21.333v-106.667h-256c-11.776 0-21.333-9.557-21.333-21.333s9.557-21.333 21.333-21.333h85.333v-832c0-11.776 9.557-21.333 21.333-21.333h682.667c11.776 0 21.333 9.557 21.333 21.333v832h128c11.776 0 21.333 9.557 21.333 21.333s-9.557 21.333-21.333 21.333zM341.333 917.333h298.667v-85.333h-298.667v85.333zM810.667-21.333h-640v810.667h640v-810.667zM320 682.667c-11.776 0-21.333-9.557-21.333-21.333v-512c0-11.776 9.557-21.333 21.333-21.333s21.333 9.557 21.333 21.333v512c0 11.776-9.557 21.333-21.333 21.333zM490.667 682.667c-11.776 0-21.333-9.557-21.333-21.333v-512c0-11.776 9.557-21.333 21.333-21.333s21.333 9.557 21.333 21.333v512c0 11.776-9.557 21.333-21.333 21.333zM640 661.333v-512c0-11.776 9.557-21.333 21.333-21.333s21.333 9.557 21.333 21.333v512c0 11.776-9.557 21.333-21.333 21.333s-21.333-9.557-21.333-21.333z" />
<glyph unicode="&#xe901;" glyph-name="flash-2" d="M872.277 564.437c-3.627 7.125-10.923 11.563-18.944 11.563h-314.709l79.573 358.059c2.176 9.899-2.859 19.968-12.16 24.064-9.216 4.139-20.139 1.195-26.027-7.083l-426.667-597.333c-4.651-6.485-5.291-15.061-1.621-22.144 3.627-7.125 10.965-11.563 18.944-11.563h314.709l-79.573-358.059c-2.176-9.899 2.859-20.011 12.16-24.107 2.816-1.237 5.76-1.835 8.704-1.835 6.699 0 13.269 3.2 17.365 8.917l426.667 597.333c4.651 6.485 5.248 15.061 1.579 22.187zM470.229 55.040l62.592 281.685c1.408 6.315-0.128 12.928-4.181 18.005-4.053 4.992-10.155 7.936-16.64 7.936h-299.861l341.632 478.293-62.592-281.685c-1.408-6.315 0.128-12.928 4.181-17.963s10.155-7.979 16.64-7.979h299.861l-341.632-478.293z" />
<glyph unicode="&#xe902;" glyph-name="paperclip-1" d="M939.605 830.336c-48.341 48.384-112.64 75.008-180.992 75.008-68.395 0-132.693-26.624-181.035-75.008l-512-511.957c-74.795-74.88-74.795-196.693 0-271.573 37.419-37.419 86.613-56.107 135.765-56.107s98.347 18.731 135.808 56.107l489.899 491.52c41.557 41.643 41.557 109.269 0 150.784-40.277 40.32-110.592 40.32-150.827 0l-362.709-362.667c-8.32-8.32-8.32-21.803 0-30.165s21.845-8.32 30.165 0l362.709 362.667c24.149 24.192 66.347 24.149 90.496 0 24.917-24.917 24.917-65.536 0-90.496l-489.941-491.435c-58.197-58.24-152.96-58.24-211.2 0-58.155 58.24-58.155 152.96 0 211.2l512 512c40.32 40.32 93.909 62.507 150.869 62.507s110.549-22.187 150.827-62.507c40.32-40.277 62.507-93.867 62.507-150.827s-22.187-110.507-62.507-150.784l-362.667-362.667c-8.32-8.363-8.32-21.845 0-30.165s21.845-8.32 30.165 0l362.667 362.667c48.341 48.299 75.008 112.597 75.008 180.949 0 68.309-26.624 132.651-75.008 180.949z" />
<glyph unicode="&#xe903;" glyph-name="email-2" d="M938.667 789.333h-853.333c-47.061 0-85.333-38.229-85.333-85.333v-512c0-47.061 38.272-85.333 85.333-85.333h853.333c47.061 0 85.333 38.272 85.333 85.333v512c0 47.104-38.272 85.333-85.333 85.333zM981.333 192c0-23.509-19.157-42.667-42.667-42.667h-853.333c-23.509 0-42.667 19.157-42.667 42.667v512c0 23.509 19.157 42.667 42.667 42.667h853.333c23.509 0 42.667-19.157 42.667-42.667v-512zM892.587 608.896c-6.4 9.856-19.584 12.715-29.483 6.315l-351.104-227.115-351.104 227.157c-9.856 6.357-23.083 3.541-29.483-6.357-6.4-9.856-3.541-23.083 6.357-29.483l362.667-234.667c3.541-2.304 7.552-3.413 11.563-3.413s8.064 1.109 11.563 3.413l362.667 234.667c9.899 6.4 12.757 19.627 6.357 29.483zM288.085 381.184l-149.333-85.333c-10.24-5.803-13.781-18.859-7.936-29.099 3.925-6.912 11.136-10.752 18.517-10.752 3.584 0 7.211 0.896 10.581 2.816l149.333 85.333c10.24 5.803 13.781 18.859 7.936 29.099-5.888 10.283-18.859 13.824-29.099 7.936zM885.248 295.851l-149.333 85.333c-10.283 5.931-23.296 2.347-29.099-7.936-5.845-10.24-2.304-23.296 7.936-29.099l149.333-85.333c3.328-1.92 6.997-2.816 10.581-2.816 7.424 0 14.592 3.84 18.56 10.752 5.803 10.197 2.261 23.296-7.979 29.099z" />
<glyph unicode="&#xe904;" glyph-name="email-compose" d="M896.085 832v-234.667c0-11.776 9.557-21.333 21.333-21.333s21.333 9.557 21.333 21.333v234.667c0 47.104-38.315 85.333-85.419 85.333h-768c-47.019 0-85.248-38.229-85.248-85.333v-469.333c0-47.061 38.229-85.333 85.248-85.333h341.419c11.776 0 21.333 9.557 21.333 21.333s-9.557 21.333-21.333 21.333h-341.419c-23.467 0-42.581 19.157-42.581 42.667v469.333c0 4.651 1.28 8.917 2.688 13.141l410.581-328.448c3.883-3.115 8.619-4.693 13.312-4.693s9.429 1.579 13.355 4.651l410.709 328.576c1.408-4.224 2.688-8.533 2.688-13.227zM469.333 560.64l-390.784 312.661c2.304 0.384 4.352 1.365 6.784 1.365h768c2.432 0 4.48-0.981 6.784-1.365l-390.784-312.661zM996.48 420.437l-106.667 106.667c-8.32 8.32-21.845 8.32-30.165 0l-320.085-320.085c-2.432-2.475-3.925-5.333-4.949-8.405-0.085-0.299-0.384-0.512-0.469-0.853l-42.667-149.333c-2.133-7.424-0.043-15.445 5.419-20.907 4.053-4.096 9.515-6.229 15.104-6.229 1.963 0 3.925 0.256 5.845 0.811l149.333 42.667c0.299 0.085 0.512 0.384 0.853 0.512 3.072 0.981 5.973 2.475 8.405 4.949l320.085 320.085c8.32 8.277 8.32 21.76-0.043 30.123zM661.333 115.413l-76.501 76.501 204.587 204.587 76.501-76.501-204.587-204.587zM565.205 151.168l55.424-55.381-77.568-22.187 22.144 77.568zM896.085 350.165l-76.501 76.501 55.168 55.168 76.501-76.501-55.168-55.168z" />
<glyph unicode="&#xe905;" glyph-name="reply-all" d="M806.613 550.571c-100.181 56.875-206.763 66.645-251.947 68.011v149.419c0 8.235-4.779 15.744-12.245 19.285-7.424 3.541-16.299 2.432-22.656-2.816l-362.667-298.667c-4.907-4.053-7.765-10.112-7.765-16.469s2.859-12.416 7.765-16.469l362.667-298.667c6.357-5.248 15.232-6.4 22.656-2.816 7.467 3.499 12.245 11.051 12.245 19.285v154.667c18.133 4.693 52.395 11.691 94.72 11.691 99.243 0 237.867-38.016 334.421-219.093 3.797-7.040 11.093-11.264 18.859-11.264 1.707 0 3.456 0.213 5.163 0.64 9.515 2.389 16.171 10.923 16.171 20.693 0 247.168-118.229 366.208-217.387 422.571zM649.387 379.733c-71.168 0-121.131-17.579-123.221-18.304-8.491-3.029-14.165-11.093-14.165-20.096v-125.44l-307.755 253.44 307.755 253.44v-125.44c0-5.803 2.389-11.392 6.571-15.403s10.155-6.315 15.701-5.931l7.595 0.128c68.395 0 390.741-18.731 434.56-366.165-102.016 138.283-230.912 169.771-327.040 169.771zM54.912 469.333l342.656 282.197c9.088 7.467 10.411 20.907 2.901 30.037-7.424 9.088-20.907 10.411-30.037 2.901l-362.667-298.667c-4.907-4.053-7.765-10.112-7.765-16.469s2.859-12.416 7.765-16.469l362.667-298.667c3.968-3.285 8.789-4.864 13.568-4.864 6.187 0 12.288 2.688 16.469 7.765 7.509 9.131 6.229 22.528-2.901 30.037l-342.656 282.197z" />
<glyph unicode="&#xe906;" glyph-name="reply" d="M457.557 621.056c-12.032 0-22.443-0.299-30.891-0.725v147.669c0 8.235-4.779 15.744-12.245 19.285-7.381 3.541-16.213 2.432-22.656-2.816l-362.667-298.667c-4.907-4.053-7.765-10.112-7.765-16.469s2.859-12.416 7.765-16.469l362.667-298.667c6.357-5.248 15.232-6.4 22.656-2.816 7.467 3.499 12.245 11.051 12.245 19.285v153.941c21.589 4.821 64.384 12.459 117.248 12.459 118.187 0 279.339-38.016 375.936-219.093 3.755-7.083 11.051-11.307 18.816-11.307 1.707 0 3.456 0.213 5.163 0.64 9.515 2.389 16.171 10.88 16.171 20.693 0 115.669-36.224 493.056-502.443 493.056zM543.915 379.733c-82.688 0-142.123-17.195-144.597-17.92-9.088-2.688-15.317-11.008-15.317-20.48v-125.44l-307.755 253.44 307.755 253.44v-125.44c0-6.144 2.645-11.904 7.168-15.957 4.565-4.053 10.667-5.973 16.683-5.248 0.171 0.043 19.371 2.261 49.707 2.261 128.597 0 415.787-37.973 455.253-370.432-106.965 139.989-255.872 171.776-368.896 171.776z" />
<glyph unicode="&#xe907;" glyph-name="account-group-5" d="M448 377.045v59.008c15.829 12.203 39.125 40.661 42.283 103.68 17.792 11.819 27.947 38.187 27.947 63.915 0 14.251-3.243 26.923-9.387 36.651-2.901 4.693-6.443 8.619-10.496 11.776 9.387 21.888 23.083 59.477 13.013 99.755-14.805 59.179-89.344 80.171-148.693 80.171-52.864 0-117.76-16.64-141.781-62.080-26.411 0.811-39.68-10.24-45.995-19.755-17.877-27.008-1.28-68.651 10.965-97.579-4.395-3.243-8.277-7.381-11.435-12.331-6.4-9.984-9.771-22.869-9.771-37.333 0-25.429 10.069-51.499 27.733-63.189 3.2-63.019 26.453-91.477 42.283-103.68v-58.965c-80.043-32.64-234.667-101.035-234.667-142.421v-192c0-11.776 9.557-21.333 21.333-21.333h640c11.776 0 21.333 9.557 21.333 21.333v192c0 41.387-154.624 109.781-234.667 142.379zM640 64h-597.333v166.229c16.512 18.261 111.147 68.608 221.269 112.64 8.064 3.243 13.397 11.051 13.397 19.797v85.333c0 8.363-5.845 16.341-13.44 19.797-0.299 0.171-29.227 14.165-29.227 86.869 0 11.776-7.040 20.693-18.773 20.693-4.907 3.371-11.563 23.979-7.168 38.144 1.579 5.163 2.901 5.163 4.608 5.163 11.776 0 21.333 9.557 21.333 21.333 0 6.784-2.731 13.269-8.149 26.069-17.92 42.283-18.645 56.277-16.341 60.203 0.043 0 8.021 1.963 20.267-0.512 11.093-2.219 22.187 4.651 24.96 15.744 6.869 27.691 52.011 47.829 107.264 47.829s100.395-20.139 107.307-47.829c7.723-30.933-5.76-61.227-13.781-79.317-4.267-9.6-6.827-15.36-6.827-22.187 0-11.776 10.795-21.461 22.613-21.461 0.896-0.64 3.499-5.12 3.584-14.336 0.171-14.72-5.717-26.709-6.229-28.203-11.776 0-21.333-9.557-21.333-21.333 0-72.235-28.544-86.528-28.373-86.528-8.576-2.987-14.293-11.093-14.293-20.139v-85.333c0-8.747 5.333-16.555 13.397-19.84 110.080-43.989 204.757-94.379 221.269-112.64v-166.187zM893.227 311.979c-20.096 7.211-41.045 14.763-61.227 22.528v36.608c15.915 10.581 38.699 34.304 42.197 84.651 14.421 12.16 21.888 36.864 21.888 61.355 0 9.6-1.237 23.552-7.253 35.584-1.963 3.968-4.352 7.467-7.040 10.496 10.453 18.987 24.235 50.133 13.099 83.541-15.403 46.208-77.995 62.592-126.891 62.592-42.709 0-95.872-12.501-118.912-46.421-15.829 0.427-28.885-4.48-37.547-14.677-18.944-22.4-7.083-58.411 2.091-82.56-3.669-3.413-6.869-7.637-9.387-12.544-6.187-11.989-7.467-25.899-7.467-35.541 0-24.747 7.595-49.749 22.315-61.909 3.541-50.261 26.325-73.941 42.197-84.523v-29.824c0-11.776 9.557-21.333 21.333-21.333s21.333 9.557 21.333 21.333v42.667c0 9.045-6.4 17.365-14.976 20.352-1.067 0.384-27.648 10.368-27.648 64.981 0 9.984-6.827 18.389-16.085 20.651-6.187 9.472-8.277 38.059-5.248 43.349 11.776 0 21.333 9.557 21.333 21.333 0 5.845-2.048 11.221-5.845 20.992-9.6 24.917-13.312 40.277-12.416 44.117 0 0 3.413 1.451 13.995-0.683 10.539-2.091 21.12 3.883 24.491 14.165 6.357 19.029 43.52 33.408 86.443 33.408s80.085-14.379 86.4-33.408c6.869-20.565-6.315-43.307-14.208-56.875-4.907-8.533-8.192-14.165-8.192-21.717 0-11.776 6.272-19.968 18.048-19.968 5.547-6.443 3.883-35.2-2.091-44.715-9.173-2.389-15.957-10.752-15.957-20.651 0-54.613-26.581-64.597-27.093-64.811-9.216-2.56-15.573-10.965-15.573-20.523v-64c0-8.747 5.333-16.555 13.397-19.84 24.576-9.813 50.901-19.285 76.032-28.331 37.973-13.653 89.131-32.085 102.571-42.539v-165.291h-213.333c-11.776 0-21.333-9.557-21.333-21.333s9.557-21.333 21.333-21.333h234.667c11.776 0 21.333 9.557 21.333 21.333v192c0 29.099-37.76 43.819-130.773 77.312z" />
<glyph unicode="&#xe908;" glyph-name="bubble-chat-add-1" d="M405.333 362.667h-42.667c-5.675 0-11.093-2.261-15.104-6.229l-134.229-134.272v119.168c0 11.776-9.557 21.333-21.333 21.333h-149.333v554.667h853.333v-362.667c0-11.776 9.557-21.333 21.333-21.333s21.333 9.557 21.333 21.333v384c0 11.776-9.557 21.333-21.333 21.333h-896c-11.776 0-21.333-9.557-21.333-21.333v-597.333c0-11.776 9.557-21.333 21.333-21.333h149.333v-149.333c0-8.619 5.205-16.427 13.184-19.712 2.645-1.109 5.419-1.621 8.149-1.621 5.547 0 11.008 2.176 15.104 6.229l164.395 164.437h33.835c11.776 0 21.333 9.557 21.333 21.333s-9.557 21.333-21.333 21.333zM746.667 490.667c-152.917 0-277.333-124.416-277.333-277.333s124.416-277.333 277.333-277.333 277.333 124.416 277.333 277.333-124.416 277.333-277.333 277.333zM746.667-21.333c-129.408 0-234.667 105.259-234.667 234.667s105.259 234.667 234.667 234.667 234.667-105.259 234.667-234.667c0-129.408-105.259-234.667-234.667-234.667zM853.333 234.667h-85.333v85.333c0 11.776-9.557 21.333-21.333 21.333s-21.333-9.557-21.333-21.333v-85.333h-85.333c-11.776 0-21.333-9.557-21.333-21.333s9.557-21.333 21.333-21.333h85.333v-85.333c0-11.776 9.557-21.333 21.333-21.333s21.333 9.557 21.333 21.333v85.333h85.333c11.776 0 21.333 9.557 21.333 21.333s-9.557 21.333-21.333 21.333z" />
<glyph unicode="&#xe909;" glyph-name="bubble-chat-list-1" d="M1002.667 917.333h-981.333c-11.776 0-21.333-9.557-21.333-21.333v-682.667c0-11.776 9.557-21.333 21.333-21.333h277.333v-149.333c0-8.619 5.205-16.427 13.184-19.712 2.645-1.109 5.419-1.621 8.149-1.621 5.547 0 11.008 2.176 15.104 6.229l164.395 164.437h503.168c11.776 0 21.333 9.557 21.333 21.333v682.667c0 11.776-9.557 21.333-21.333 21.333zM981.333 234.667h-490.667c-5.675 0-11.093-2.261-15.104-6.229l-134.229-134.272v119.168c0 11.776-9.557 21.333-21.333 21.333h-277.333v640h938.667v-640zM405.333 661.333h384c11.776 0 21.333 9.557 21.333 21.333s-9.557 21.333-21.333 21.333h-384c-11.776 0-21.333-9.557-21.333-21.333s9.557-21.333 21.333-21.333zM405.333 533.333h384c11.776 0 21.333 9.557 21.333 21.333s-9.557 21.333-21.333 21.333h-384c-11.776 0-21.333-9.557-21.333-21.333s9.557-21.333 21.333-21.333zM405.333 405.333h384c11.776 0 21.333 9.557 21.333 21.333s-9.557 21.333-21.333 21.333h-384c-11.776 0-21.333-9.557-21.333-21.333s9.557-21.333 21.333-21.333zM234.667 661.333h42.667c11.776 0 21.333 9.557 21.333 21.333s-9.557 21.333-21.333 21.333h-42.667c-11.776 0-21.333-9.557-21.333-21.333s9.557-21.333 21.333-21.333zM234.667 533.333h42.667c11.776 0 21.333 9.557 21.333 21.333s-9.557 21.333-21.333 21.333h-42.667c-11.776 0-21.333-9.557-21.333-21.333s9.557-21.333 21.333-21.333zM234.667 405.333h42.667c11.776 0 21.333 9.557 21.333 21.333s-9.557 21.333-21.333 21.333h-42.667c-11.776 0-21.333-9.557-21.333-21.333s9.557-21.333 21.333-21.333z" />
<glyph unicode="&#xe90a;" glyph-name="phone-3" d="M900.267 835.456c-255.701 52.011-520.96 51.968-776.533 0-70.528-14.421-123.733-76.8-123.733-145.067v-64c0-60.928 49.835-114.389 106.667-114.389h128c56.832 0 106.667 53.461 106.667 114.389v23.253c112.341 9.899 228.992 9.899 341.333 0v-23.253c0-60.928 49.835-114.389 106.667-114.389h128c56.832 0 106.667 53.461 106.667 114.389v64c0 68.267-53.205 130.645-123.733 145.067zM981.333 626.389c0-36.907-31.104-71.723-64-71.723h-128c-32.896 0-64 34.816-64 71.723v42.667c0 10.965-8.32 20.181-19.243 21.248-63.659 6.272-128.939 9.515-194.048 9.515-65.152 0-130.475-3.2-194.133-9.515-10.923-1.109-19.243-10.325-19.243-21.248v-42.667c0-36.907-31.104-71.723-64-71.723h-128c-32.896 0-64 34.816-64 71.723v64c0 48.427 38.528 92.843 89.6 103.253 249.984 50.901 509.397 50.901 759.467 0 51.072-10.411 89.6-54.827 89.6-103.253v-64zM768 128c0-35.285-28.715-64-64-64h-426.667c-35.285 0-64 28.715-64 64v341.333h-42.667v-341.333c0-58.837 47.872-106.667 106.667-106.667h426.667c58.795 0 106.667 47.829 106.667 106.667v341.333h-42.667v-341.333zM341.333 405.333h42.667v-42.667h-42.667v42.667zM469.333 405.333h42.667v-42.667h-42.667v42.667zM597.333 405.333h42.667v-42.667h-42.667v42.667zM341.333 320h42.667v-42.667h-42.667v42.667zM469.333 320h42.667v-42.667h-42.667v42.667zM597.333 320h42.667v-42.667h-42.667v42.667zM341.333 234.667h42.667v-42.667h-42.667v42.667zM469.333 234.667h42.667v-42.667h-42.667v42.667zM597.333 234.667h42.667v-42.667h-42.667v42.667z" />
<glyph unicode="&#xe90b;" glyph-name="phone-5" d="M946.176 212.651l-104.661 104.661c-45.269 45.312-124.373 45.397-169.771 0l-21.163-21.163c-103.851 86.656-203.605 186.453-290.389 290.432l21.205 21.163c46.763 46.848 46.763 122.965 0 169.728l-104.704 104.704c-45.355 45.355-124.416 45.355-169.771 0l-57.344-57.429c-56.619-56.619-65.621-146.261-21.419-213.077 168.619-254.976 392.533-478.891 647.467-647.509 27.819-18.432 60.16-28.117 93.483-28.117 45.269 0 87.723 17.579 119.637 49.493l57.429 57.429c22.656 22.656 35.157 52.779 35.157 84.864 0 32.043-12.501 62.208-35.157 84.821zM916.011 73.131l-57.429-57.429c-41.429-41.472-110.251-48.384-159.403-15.957-250.197 165.504-469.931 385.195-635.435 635.435-33.067 50.048-26.325 117.077 16 159.403l57.387 57.429c14.592 14.635 34.048 22.656 54.699 22.656s40.107-8.021 54.699-22.656l104.704-104.704c30.165-30.123 30.123-79.189 0-109.355l-34.901-34.901c-7.765-7.765-8.363-20.139-1.408-28.587 95.36-116.437 207.232-228.352 323.541-323.584 8.491-6.955 20.821-6.272 28.587 1.408l34.859 34.859c29.269 29.269 80.213 29.269 109.397 0l104.661-104.661c14.635-14.549 22.699-34.005 22.699-54.656s-8.064-40.064-22.656-54.699z" />
<glyph unicode="&#xe90c;" glyph-name="phone-call-2" d="M732.587 270.763c-40.277 40.32-110.549 40.32-150.827 0l-16.427-16.427c-88.405 73.941-173.227 158.805-246.997 246.955l16.469 16.469c41.515 41.6 41.515 109.312 0 150.869l-90.581 90.496c-40.235 40.235-110.592 40.235-150.827 0l-49.707-49.664c-49.877-49.92-57.813-128.896-18.816-187.861 146.005-220.8 339.883-414.677 560.725-560.725 24.533-16.213 53.035-24.789 82.389-24.789 39.893 0 77.355 15.488 105.429 43.648l49.707 49.664c41.557 41.557 41.557 109.227 0 150.827l-90.539 90.539zM792.96 59.563l-49.749-49.664c-34.816-34.901-92.8-40.747-134.144-13.44-216.064 142.933-405.76 332.629-548.651 548.608-27.819 42.155-22.187 98.603 13.44 134.229l49.664 49.664c12.075 12.075 28.16 18.688 45.269 18.688s33.152-6.613 45.269-18.688l90.539-90.496c24.917-24.96 24.917-65.579 0-90.539l-30.165-30.165c-7.765-7.765-8.363-20.139-1.408-28.587 82.432-100.608 179.285-197.504 280.149-280.149 8.491-6.997 20.821-6.272 28.587 1.408l30.165 30.165c24.149 24.149 66.347 24.149 90.496 0l90.539-90.496c24.917-24.96 24.917-65.621 0-90.539zM512 960c-11.776 0-21.333-9.557-21.333-21.333s9.557-21.333 21.333-21.333c258.773 0 469.333-210.56 469.333-469.333 0-11.776 9.557-21.333 21.333-21.333s21.333 9.557 21.333 21.333c0 282.325-229.675 512-512 512zM512 746.667c164.693 0 298.667-134.016 298.667-298.667 0-11.776 9.557-21.333 21.333-21.333s21.333 9.557 21.333 21.333c0 188.203-153.131 341.333-341.333 341.333-11.776 0-21.333-9.557-21.333-21.333s9.557-21.333 21.333-21.333zM512 576c70.571 0 128-57.429 128-128 0-11.776 9.557-21.333 21.333-21.333s21.333 9.557 21.333 21.333c0 94.123-76.544 170.667-170.667 170.667-11.776 0-21.333-9.557-21.333-21.333s9.557-21.333 21.333-21.333z" />
<glyph unicode="&#xe90d;" glyph-name="phone-call-24-hours" d="M732.629 270.677c-40.277 40.32-110.592 40.32-150.869 0l-16.427-16.427c-88.192 73.771-173.056 158.635-247.040 246.997l16.469 16.469c41.557 41.557 41.557 109.227 0 150.827l-90.539 90.496c-40.277 40.32-110.549 40.32-150.827 0l-49.707-49.664c-49.92-49.92-57.813-128.896-18.816-187.904 146.048-220.757 339.925-414.635 560.725-560.683 24.491-16.213 52.992-24.789 82.347-24.789 39.893 0 77.355 15.488 105.515 43.648l49.664 49.664c20.139 20.139 31.232 46.933 31.232 75.435 0 28.459-11.093 55.253-31.232 75.435l-90.496 90.496zM792.96 59.52l-49.664-49.664c-34.944-34.859-92.885-40.747-134.187-13.44-216.021 142.933-405.717 332.629-548.651 548.608-27.861 42.112-22.229 98.56 13.397 134.187l49.664 49.664c12.075 12.075 28.16 18.731 45.269 18.731s33.152-6.656 45.269-18.731l90.539-90.496c24.96-24.96 24.96-65.579 0-90.496l-30.208-30.165c-7.765-7.765-8.363-20.139-1.408-28.629 82.688-100.821 179.541-197.76 280.192-280.149 8.491-6.955 20.821-6.229 28.587 1.408l30.165 30.165c24.149 24.149 66.389 24.149 90.539 0l90.496-90.496c12.075-12.075 18.731-28.16 18.731-45.269s-6.613-33.152-18.731-45.227zM875.179 657.579v141.525c0 9.344-6.059 17.579-14.976 20.395-8.875 2.645-18.56-0.597-23.893-8.192l-112.981-162.816c-4.523-6.528-5.077-15.061-1.365-22.059 3.669-7.040 10.965-11.477 18.901-11.477h91.648v-71.851c0-11.776 9.557-21.333 21.333-21.333s21.333 9.557 21.333 21.333v71.808c11.435 0.427 20.565 9.771 20.565 21.333s-9.131 20.907-20.565 21.333zM832.512 657.579h-50.901l50.901 73.344v-73.344zM510.891 555.349c-4.565-6.528-5.12-15.061-1.451-22.101 3.669-7.083 10.965-11.52 18.901-11.52h122.453c11.776 0 21.333 9.557 21.333 21.333s-9.557 21.333-21.333 21.333h-81.493l88.021 125.781c4.267 6.229 15.531 22.656 15.531 47.872 0 45.397-37.035 82.347-82.56 82.347-44.416 0-80.64-34.645-82.475-78.891-0.512-11.733 8.661-21.717 20.437-22.229 11.605 0.043 21.717 8.619 22.229 20.437 0.896 21.291 18.389 37.973 39.851 37.973 22.016 0 39.893-17.792 39.893-39.68 0-11.093-4.181-18.091-7.936-23.595l-111.403-159.061z" />
<glyph unicode="&#xe90e;" glyph-name="mobile-phone-portrait" d="M704 960h-384c-58.795 0-106.667-47.829-106.667-106.667v-810.667c0-58.837 47.872-106.667 106.667-106.667h384c58.795 0 106.667 47.829 106.667 106.667v810.667c0 58.837-47.829 106.667-106.667 106.667zM256 746.667h512v-597.333h-512v597.333zM320 917.333h384c35.328 0 64-28.715 64-64v-64h-512v64c0 35.285 28.715 64 64 64zM704-21.333h-384c-35.285 0-64 28.715-64 64v64h512v-64c0-35.285-28.672-64-64-64zM618.667 64h-213.333c-11.776 0-21.333-9.557-21.333-21.333s9.557-21.333 21.333-21.333h213.333c11.776 0 21.333 9.557 21.333 21.333s-9.515 21.333-21.333 21.333zM554.667 853.333c0-23.564-19.103-42.667-42.667-42.667s-42.667 19.103-42.667 42.667c0 23.564 19.103 42.667 42.667 42.667s42.667-19.103 42.667-42.667z" />
<glyph unicode="&#xe90f;" glyph-name="navigation-drawer-2" d="M874.667 832h-725.333c-11.776 0-21.333-9.557-21.333-21.333v-128c0-11.776 9.557-21.333 21.333-21.333h725.333c11.776 0 21.333 9.557 21.333 21.333v128c0 11.776-9.557 21.333-21.333 21.333zM853.333 704h-682.667v85.333h682.667v-85.333zM874.667 576h-725.333c-11.776 0-21.333-9.557-21.333-21.333v-128c0-11.776 9.557-21.333 21.333-21.333h725.333c11.776 0 21.333 9.557 21.333 21.333v128c0 11.776-9.557 21.333-21.333 21.333zM853.333 448h-682.667v85.333h682.667v-85.333zM874.667 320h-725.333c-11.776 0-21.333-9.557-21.333-21.333v-128c0-11.776 9.557-21.333 21.333-21.333h725.333c11.776 0 21.333 9.557 21.333 21.333v128c0 11.776-9.557 21.333-21.333 21.333zM853.333 192h-682.667v85.333h682.667v-85.333z" />
<glyph unicode="&#xe910;" glyph-name="new-document" d="M1024 938.667c0 11.776-9.557 21.333-21.333 21.333h-981.333c-11.776 0-21.333-9.557-21.333-21.333v-981.333c0-11.776 9.557-21.333 21.333-21.333h682.667c2.816 0 5.632 0.597 8.192 1.664 2.645 1.067 4.949 2.645 6.912 4.608l298.581 298.624c1.963 1.963 3.541 4.267 4.608 6.912 1.109 2.56 1.707 5.333 1.707 8.192v682.667zM42.667 917.333h938.667v-640h-277.333c-11.776 0-21.333-9.557-21.333-21.333v-277.333h-640v938.667zM951.168 234.667l-225.835-225.835v225.835h225.835z" />
<glyph unicode="&#xe911;" glyph-name="lock-close-1" d="M512 362.667c-23.552 0-42.667-19.157-42.667-42.667 0-15.573 8.832-28.672 21.333-36.139v-113.195c0-11.776 9.557-21.333 21.333-21.333s21.333 9.557 21.333 21.333v113.195c12.501 7.467 21.333 20.565 21.333 36.139 0 23.509-19.115 42.667-42.667 42.667zM874.667 576h-106.667v128c0 141.184-114.816 256-256 256s-256-114.816-256-256v-128h-106.667c-11.776 0-21.333-9.557-21.333-21.333v-597.333c0-11.776 9.557-21.333 21.333-21.333h725.333c11.776 0 21.333 9.557 21.333 21.333v597.333c0 11.776-9.557 21.333-21.333 21.333zM298.667 704c0 117.632 95.701 213.333 213.333 213.333s213.333-95.701 213.333-213.333v-128h-426.667v128zM853.333-21.333h-682.667v554.667h682.667v-554.667z" />
<glyph unicode="&#xe912;" glyph-name="lock-open-1" d="M490.667 283.861v-113.195c0-11.776 9.557-21.333 21.333-21.333s21.333 9.557 21.333 21.333v113.195c12.501 7.467 21.333 20.565 21.333 36.139 0 23.509-19.115 42.667-42.667 42.667s-42.667-19.157-42.667-42.667c0-15.573 8.832-28.672 21.333-36.139zM874.667 576h-106.667v128c0 141.184-114.816 256-256 256s-256-114.816-256-256h42.667c0 117.632 95.701 213.333 213.333 213.333s213.333-95.701 213.333-213.333v-128h-576c-11.776 0-21.333-9.557-21.333-21.333v-597.333c0-11.776 9.557-21.333 21.333-21.333h725.333c11.776 0 21.333 9.557 21.333 21.333v597.333c0 11.776-9.557 21.333-21.333 21.333zM853.333-21.333h-682.667v554.667h682.667v-554.667z" />
<glyph unicode="&#xe913;" glyph-name="megaphone-1" d="M938.667 618.667v234.667c0 7.253-3.669 13.995-9.771 17.92-6.101 3.883-13.696 4.48-20.395 1.493l-39.595-18.133c-168.405-77.44-327.509-150.613-676.907-150.613h-42.667c-82.347 0-149.333-66.987-149.333-149.333v-85.333c0-82.347 66.987-149.333 149.333-149.333h42.667c37.888 0 73.131-0.981 106.752-2.645 0.597-125.227 70.272-237.696 182.357-293.803 3.072-1.493 6.357-2.219 9.557-2.219 7.808 0 15.317 4.309 19.072 11.776 5.248 10.539 0.981 23.339-9.557 28.629-96.768 48.427-157.099 145.109-158.592 253.013 249.131-17.835 385.195-80 527.488-145.451l39.381-18.048c2.859-1.28 5.888-1.92 8.875-1.92 4.053 0 8.021 1.109 11.563 3.413 6.101 3.925 9.771 10.667 9.771 17.92v234.667c47.061 0 85.333 38.272 85.333 85.333v42.667c0 47.104-38.272 85.333-85.333 85.333zM149.333 362.667c-58.837 0-106.667 47.872-106.667 106.667v85.333c0 58.795 47.829 106.667 106.667 106.667h42.667c37.803 0 72.96 0.981 106.667 2.603v-303.829c-33.707 1.579-68.864 2.56-106.667 2.56h-42.667zM896 203.904l-9.045 4.139c-146.773 67.499-287.104 131.669-545.621 149.547v308.821c258.475 17.877 398.72 81.963 545.408 149.461l9.259 4.224v-616.192zM981.333 490.667c0-23.509-19.115-42.667-42.667-42.667v128c23.552 0 42.667-19.157 42.667-42.667v-42.667z" />
<glyph unicode="&#xe914;" glyph-name="report-problem-circle" d="M499.029 917.333l-8.747-0.085c-131.456-2.261-255.104-55.424-348.288-149.547-93.781-94.805-144.171-219.008-141.909-349.611 4.693-270.421 216.533-482.219 482.347-482.219l8.619 0.043c274.987 4.779 494.933 228.779 490.197 499.243-4.693 270.379-216.491 482.176-482.219 482.176zM490.283-21.419l-7.893-0.043c-242.261 0-435.371 193.365-439.68 440.277-2.091 119.040 43.947 232.277 129.579 318.848 85.291 86.229 198.443 134.827 318.72 136.917l8.021 0.085c242.219 0 435.243-193.365 439.552-440.235 4.309-246.955-196.821-451.456-448.299-455.851zM490.667 341.333c11.776 0 21.333 9.557 21.333 21.333v298.667c0 11.776-9.557 21.333-21.333 21.333s-21.333-9.557-21.333-21.333v-298.667c0-11.776 9.557-21.333 21.333-21.333zM533.333 213.333c0-23.564-19.103-42.667-42.667-42.667s-42.667 19.103-42.667 42.667c0 23.564 19.103 42.667 42.667 42.667s42.667-19.103 42.667-42.667z" />
<glyph unicode="&#xe915;" glyph-name="camera-2" d="M914.944 704h-69.803l-38.101 75.819c-22.357 33.664-51.413 52.181-81.707 52.181h-213.333c-30.293 0-59.349-18.517-81.067-51.2l-57.6-76.8h-117.333v21.333c0 34.091-31.019 64-66.389 64h-40.277c-34.048 0-62.805-29.312-62.805-63.403l-0.64-23.552c-69.803-7.765-85.888-53.717-85.888-93.227v-443.221c0-64.811 39.765-101.931 109.056-101.931h805.931c69.248 0 109.013 37.12 109.013 101.931v443.221c0 43.264-18.901 94.848-109.056 94.848zM149.333 746.667h40.277c11.776 0 23.723-10.752 23.723-21.333v-21.333h-84.693l0.597 21.333c-0.043 10.752 9.941 21.333 20.096 21.333zM981.333 165.931c0-41.045-20.48-59.264-66.389-59.264h-805.888c-45.909 0-66.389 18.219-66.389 59.264v443.221c0 31.317 10.88 52.181 64 52.181h277.333c6.699 0 13.056 3.157 17.067 8.533l64.683 86.315c8.235 12.373 25.259 33.152 46.251 33.152h213.333c20.992 0 38.016-20.779 44.928-30.891l42.667-85.333c3.627-7.211 11.008-11.776 19.072-11.776h82.944c61.269 0 66.389-25.771 66.389-52.181v-443.221zM618.667 661.333c-141.184 0-256-114.816-256-256s114.816-256 256-256 256 114.816 256 256c0 141.184-114.816 256-256 256zM618.667 192c-117.632 0-213.333 95.701-213.333 213.333s95.701 213.333 213.333 213.333 213.333-95.701 213.333-213.333-95.701-213.333-213.333-213.333zM618.667 554.667c-82.347 0-149.333-66.987-149.333-149.333s66.987-149.333 149.333-149.333 149.333 66.987 149.333 149.333-66.987 149.333-149.333 149.333zM618.667 298.667c-58.795 0-106.667 47.872-106.667 106.667s47.872 106.667 106.667 106.667 106.667-47.872 106.667-106.667-47.872-106.667-106.667-106.667zM170.667 618.667c-47.061 0-85.333-38.272-85.333-85.333s38.272-85.333 85.333-85.333 85.333 38.272 85.333 85.333-38.272 85.333-85.333 85.333zM170.667 490.667c-23.509 0-42.667 19.157-42.667 42.667s19.157 42.667 42.667 42.667 42.667-19.157 42.667-42.667-19.157-42.667-42.667-42.667z" />
<glyph unicode="&#xe916;" glyph-name="video-camera-2" d="M618.667 362.667h-426.667c-11.776 0-21.333-9.557-21.333-21.333s9.557-21.333 21.333-21.333h426.667c11.776 0 21.333 9.557 21.333 21.333s-9.557 21.333-21.333 21.333zM192 533.333c105.856 0 192 86.144 192 192s-86.144 192-192 192-192-86.144-192-192 86.144-192 192-192zM192 874.667c82.347 0 149.333-66.987 149.333-149.333s-66.987-149.333-149.333-149.333-149.333 66.987-149.333 149.333 66.987 149.333 149.333 149.333zM554.667 533.333c70.571 0 128 57.429 128 128s-57.429 128-128 128-128-57.429-128-128 57.429-128 128-128zM554.667 746.667c47.061 0 85.333-38.229 85.333-85.333 0-47.061-38.272-85.333-85.333-85.333s-85.333 38.272-85.333 85.333c0 47.104 38.272 85.333 85.333 85.333zM1002.88 427.093c-13.397 8.875-30.805 9.941-47.829 2.859l-187.051-77.952v74.667c0 35.285-28.715 64-64 64h-597.333c-35.285 0-64-28.715-64-64v-341.333c0-35.285 28.715-64 64-64h597.333c35.285 0 64 28.715 64 64v74.667l187.051-77.952c7.467-3.115 15.019-4.608 22.272-4.608 9.259 0 18.048 2.517 25.557 7.509 13.44 8.875 21.12 24.576 21.12 43.051v256c0 18.475-7.68 34.133-21.12 43.093zM704 64h-597.333c-11.776 0-21.333 9.557-21.333 21.333v341.333c0 11.776 9.557 21.333 21.333 21.333h597.333c11.776 0 21.333-9.557 21.333-21.333v-106.539c0-0.043 0-0.043 0-0.043v-234.752c0-11.776-9.557-21.333-21.333-21.333zM981.333 128c0-4.523-1.237-6.997-2.091-7.552-0.853-0.597-3.541-0.768-7.765 0.981l-203.477 84.779v99.584l203.52 84.736c4.181 1.749 6.912 1.579 7.723 0.981 0.853-0.512 2.091-2.987 2.091-7.509v-256z" />
<glyph unicode="&#xe917;" glyph-name="cd" d="M512 960c-282.325 0-512-229.675-512-512s229.675-512 512-512 512 229.675 512 512-229.675 512-512 512zM512-21.333c-258.773 0-469.333 210.56-469.333 469.333s210.56 469.333 469.333 469.333 469.333-210.56 469.333-469.333-210.56-469.333-469.333-469.333zM512 576c-70.571 0-128-57.429-128-128s57.429-128 128-128 128 57.429 128 128-57.429 128-128 128zM512 362.667c-47.061 0-85.333 38.272-85.333 85.333s38.272 85.333 85.333 85.333 85.333-38.272 85.333-85.333-38.272-85.333-85.333-85.333zM533.333 448c0-11.782-9.551-21.333-21.333-21.333s-21.333 9.551-21.333 21.333c0 11.782 9.551 21.333 21.333 21.333s21.333-9.551 21.333-21.333zM587.819 845.995c-11.691 2.261-22.784-5.419-24.917-16.981-2.176-11.563 5.419-22.699 16.981-24.917 149.461-28.331 265.899-148.437 289.835-298.837 1.664-10.496 10.709-18.005 21.035-18.005 1.109 0 2.219 0.085 3.371 0.256 11.605 1.877 19.541 12.8 17.707 24.405-26.709 168.149-156.928 302.421-324.011 334.080zM571.861 762.197c-11.776 2.261-22.741-5.376-24.917-16.981-2.176-11.563 5.419-22.699 16.981-24.917 114.261-21.675 203.349-113.451 221.611-228.48 1.664-10.496 10.709-18.005 21.035-18.005 1.109 0 2.219 0.085 3.371 0.256 11.605 1.877 19.541 12.8 17.707 24.405-21.12 132.779-123.904 238.72-255.787 263.723zM555.861 678.4c-11.392 2.048-22.699-5.419-24.917-16.981-2.176-11.563 5.419-22.699 16.981-24.917 79.061-14.976 140.715-78.549 153.387-158.208 1.664-10.496 10.709-17.963 21.035-17.963 1.109 0 2.261 0.085 3.371 0.256 11.648 1.877 19.541 12.8 17.707 24.448-15.445 97.323-90.837 175.104-187.563 193.365zM444.117 91.904c-149.419 28.288-265.899 148.395-289.792 298.837-1.835 11.605-12.501 19.499-24.405 17.749-11.605-1.877-19.541-12.8-17.707-24.405 26.709-168.192 156.928-302.464 324.011-334.080 1.323-0.256 2.688-0.384 3.968-0.384 10.069 0 18.987 7.125 20.949 17.365 2.176 11.605-5.419 22.741-17.024 24.917zM460.117 175.701c-114.304 21.675-203.392 113.493-221.611 228.48-1.835 11.605-12.885 19.413-24.405 17.749-11.648-1.877-19.584-12.8-17.749-24.405 21.077-132.736 123.861-238.763 255.787-263.765 1.365-0.256 2.688-0.384 4.011-0.384 10.027 0 18.987 7.125 20.949 17.365 2.176 11.648-5.419 22.741-16.981 24.96zM476.075 259.456c-79.104 15.019-140.757 78.592-153.429 158.208-1.835 11.605-12.587 19.499-24.405 17.749-11.605-1.877-19.541-12.8-17.707-24.405 15.445-97.365 90.837-175.104 187.563-193.451 1.365-0.256 2.688-0.384 4.011-0.384 10.027 0 18.987 7.125 20.949 17.365 2.176 11.563-5.419 22.699-16.981 24.917z" />
<glyph unicode="&#xe918;" glyph-name="basket-1" d="M1003.179 576h-981.333c-11.776 0-21.333-9.557-21.333-21.333v-85.333c0-11.776 9.557-21.333 21.333-21.333h24.832l82.176-451.84c1.835-10.112 10.709-17.493 20.992-17.493h725.333c10.283 0 19.115 7.381 20.992 17.493l82.176 451.84h24.832c11.776 0 21.333 9.557 21.333 21.333v85.333c0 11.776-9.557 21.333-21.333 21.333zM857.387 21.333h-689.749l-77.611 426.667h844.928l-77.568-426.667zM981.845 490.667h-938.667v42.667h938.667v-42.667zM149.845 618.667c5.461 0 10.923 2.091 15.061 6.229l256 256c8.32 8.32 8.32 21.845 0 30.165s-21.845 8.32-30.165 0l-256-256c-8.32-8.32-8.32-21.845 0-30.165 4.181-4.139 9.643-6.229 15.104-6.229zM860.075 624.896c4.181-4.139 9.643-6.229 15.104-6.229s10.923 2.091 15.104 6.229c8.32 8.32 8.32 21.845 0 30.165l-256 256c-8.32 8.32-21.845 8.32-30.165 0s-8.32-21.845 0-30.165l255.957-256zM576.512 106.667c11.776 0 21.333 9.557 21.333 21.333v256c0 11.776-9.557 21.333-21.333 21.333s-21.333-9.557-21.333-21.333v-256c0-11.776 9.515-21.333 21.333-21.333zM747.179 106.667c11.776 0 21.333 9.557 21.333 21.333v256c0 11.776-9.557 21.333-21.333 21.333s-21.333-9.557-21.333-21.333v-256c0-11.776 9.515-21.333 21.333-21.333zM448.512 106.667c11.776 0 21.333 9.557 21.333 21.333v256c0 11.776-9.557 21.333-21.333 21.333s-21.333-9.557-21.333-21.333v-256c0-11.776 9.515-21.333 21.333-21.333zM277.845 106.667c11.776 0 21.333 9.557 21.333 21.333v256c0 11.776-9.557 21.333-21.333 21.333s-21.333-9.557-21.333-21.333v-256c0-11.776 9.515-21.333 21.333-21.333z" />
<glyph unicode="&#xe919;" glyph-name="shopping-cart-4" d="M894.933 163.883l128 384c2.133 6.528 1.067 13.696-2.987 19.243-3.968 5.589-10.411 8.875-17.28 8.875h-754.859l-56.405 239.573c-2.219 9.6-10.837 16.427-20.736 16.427h-149.333c-11.776 0-21.333-9.557-21.333-21.333s9.557-21.333 21.333-21.333h132.437l161.707-687.104c-34.347-11.051-59.477-42.923-59.477-80.896 0-47.061 38.272-85.333 85.333-85.333s85.333 38.272 85.333 85.333c0 15.573-4.523 30.080-11.861 42.667h322.432c-7.424-12.587-11.904-27.093-11.904-42.667 0-47.061 38.272-85.333 85.333-85.333s85.333 38.272 85.333 85.333c0 47.061-38.272 85.333-85.333 85.333h-452.437l-10.027 42.667h526.464c9.173 0 17.323 5.888 20.267 14.549zM384 21.333c0-23.509-19.115-42.667-42.667-42.667s-42.667 19.157-42.667 42.667 19.115 42.667 42.667 42.667 42.667-19.157 42.667-42.667zM853.333 21.333c0-23.509-19.115-42.667-42.667-42.667s-42.667 19.157-42.667 42.667 19.115 42.667 42.667 42.667 42.667-19.157 42.667-42.667zM338.176 192l-80.341 341.333h715.264l-113.792-341.333h-521.131z" />
<glyph unicode="&#xe91a;" glyph-name="window-1" d="M640 746.667c0-23.564-19.103-42.667-42.667-42.667s-42.667 19.103-42.667 42.667c0 23.564 19.103 42.667 42.667 42.667s42.667-19.103 42.667-42.667zM768 746.667c0-23.564-19.103-42.667-42.667-42.667s-42.667 19.103-42.667 42.667c0 23.564 19.103 42.667 42.667 42.667s42.667-19.103 42.667-42.667zM896 746.667c0-23.564-19.103-42.667-42.667-42.667s-42.667 19.103-42.667 42.667c0 23.564 19.103 42.667 42.667 42.667s42.667-19.103 42.667-42.667zM1002.667 874.667h-981.333c-11.776 0-21.333-9.557-21.333-21.333v-810.667c0-11.776 9.557-21.333 21.333-21.333h981.333c11.776 0 21.333 9.557 21.333 21.333v810.667c0 11.776-9.557 21.333-21.333 21.333zM981.333 832v-170.667h-938.667v170.667h938.667zM42.667 64v554.667h938.667v-554.667h-938.667z" />
<glyph unicode="&#xe91b;" glyph-name="globe-question" d="M512-21.333c-258.773 0-469.333 210.517-469.333 469.333 0 258.773 210.56 469.333 469.333 469.333 29.44 0 58.197-3.115 86.187-8.277l-139.435-79.915c-6.656-3.755-10.752-10.837-10.752-18.475s4.096-14.72 10.752-18.517l64-36.523v-94.293h-234.667c-7.253 0-14.037-3.669-17.92-9.771l-96.085-149.333c-5.803-9.003-4.011-20.949 4.224-27.861l195.157-164.309v-96.725c0-11.776 9.557-21.333 21.333-21.333s21.333 9.557 21.333 21.333v106.667c0 6.272-2.773 12.288-7.595 16.299l-188.416 158.592 79.616 123.776h244.352c11.776 0 21.333 9.557 21.333 21.333v128c0 7.68-4.096 14.72-10.752 18.517l-42.368 24.192 145.237 83.2c73.131-23.979 138.368-65.323 190.805-119.339l-60.971-113.237h-61.952c-5.675 0-11.093-2.261-15.104-6.229l-74.667-74.667c-8.32-8.363-8.32-21.845 0-30.165 4.181-4.181 9.643-6.229 15.104-6.229s10.923 2.091 15.104 6.229l68.395 68.395h65.835c7.851 0 15.061 4.309 18.773 11.221l59.605 110.592c64.213-80.299 102.869-181.888 102.869-292.48 0-11.776 9.557-21.333 21.333-21.333s21.333 9.557 21.333 21.333c0 131.115-49.963 250.453-131.328 341.163-1.408 2.347-3.243 4.352-5.504 6.059-60.629 65.493-137.813 115.456-225.237 142.251-0.64 0.213-1.28 0.384-1.963 0.512-46.891 14.208-96.512 22.016-147.968 22.016-282.325 0-512-229.675-512-512s229.675-512 512-512c11.776 0 21.333 9.557 21.333 21.333s-9.557 21.333-21.333 21.333zM746.667 490.667c-152.917 0-277.333-124.416-277.333-277.333s124.416-277.333 277.333-277.333 277.333 124.416 277.333 277.333-124.416 277.333-277.333 277.333zM746.667-21.333c-129.408 0-234.667 105.259-234.667 234.667s105.259 234.667 234.667 234.667 234.667-105.259 234.667-234.667-105.259-234.667-234.667-234.667zM771.968 73.899c0-13.974-11.328-25.301-25.301-25.301s-25.301 11.328-25.301 25.301c0 13.974 11.328 25.301 25.301 25.301s25.301-11.328 25.301-25.301zM746.667 386.133c-53.589 0-97.195-43.605-97.195-97.195 0-11.776 9.557-21.333 21.333-21.333s21.333 9.557 21.333 21.333c0 30.080 24.448 54.528 54.528 54.528s54.528-24.448 54.528-54.528c0-30.123-24.448-54.571-54.528-54.571-11.776 0-21.333-9.557-21.333-21.333v-75.861c0-11.776 9.557-21.333 21.333-21.333s21.333 9.557 21.333 21.333v56.875c43.392 9.771 75.861 48.597 75.861 94.891 0 53.589-43.605 97.195-97.195 97.195z" />
<glyph unicode="&#xe91c;" glyph-name="location-pin-2" d="M512 960c-188.203 0-341.333-153.131-341.333-341.333 0-181.12 310.315-653.099 323.541-673.067 3.925-6.016 10.624-9.6 17.792-9.6s13.867 3.584 17.792 9.6c13.227 19.968 323.541 491.947 323.541 673.067 0 188.203-153.131 341.333-341.333 341.333zM512-3.413c-66.816 104.448-298.667 477.184-298.667 622.080 0 164.693 133.973 298.667 298.667 298.667s298.667-133.973 298.667-298.667c0-144.853-231.851-517.632-298.667-622.080zM512 768c-82.347 0-149.333-66.987-149.333-149.333s66.987-149.333 149.333-149.333 149.333 66.987 149.333 149.333-66.987 149.333-149.333 149.333zM512 512c-58.795 0-106.667 47.872-106.667 106.667s47.872 106.667 106.667 106.667 106.667-47.872 106.667-106.667-47.872-106.667-106.667-106.667z" />
<glyph unicode="&#xe91d;" glyph-name="map-pin-1" d="M640 897.195l256-182.869v-202.325c0-11.776 9.557-21.333 21.333-21.333s21.333 9.557 21.333 21.333v213.333c0 6.912-3.328 13.355-8.917 17.365l-298.667 213.333c-0.384 0.256-0.896 0.128-1.28 0.427-3.285 2.048-6.955 3.541-11.136 3.541s-7.851-1.493-11.136-3.541c-0.384-0.256-0.896-0.128-1.28-0.427l-286.251-204.501-286.251 204.501c-6.485 4.693-15.061 5.291-22.187 1.621s-11.563-11.008-11.563-18.987v-682.667c0-6.912 3.328-13.355 8.917-17.365l298.667-213.333c0.384-0.299 0.896-0.171 1.28-0.427 3.285-2.048 6.955-3.541 11.136-3.541s7.851 1.493 11.136 3.541c0.384 0.256 0.896 0.128 1.28 0.427l256 182.869c9.6 6.827 11.819 20.181 4.949 29.739-6.869 9.6-20.139 11.819-29.739 4.992l-222.293-158.805v630.272l256 182.869v-385.237c0-11.776 9.557-21.333 21.333-21.333s21.333 9.557 21.333 21.333v385.195zM42.667 897.195l256-182.869v-630.229l-256 182.827v630.272zM832 448c-105.856 0-192-86.144-192-192 0-99.115 157.653-290.816 175.616-312.32 4.053-4.864 10.069-7.68 16.384-7.68s12.331 2.816 16.384 7.68c17.963 21.504 175.616 213.205 175.616 312.32 0 105.856-86.144 192-192 192zM832-8.832c-53.12 66.816-149.333 201.173-149.333 264.832 0 82.347 66.987 149.333 149.333 149.333s149.333-66.987 149.333-149.333c0-63.616-96.256-197.973-149.333-264.832zM832 341.333c-47.061 0-85.333-38.272-85.333-85.333s38.272-85.333 85.333-85.333 85.333 38.272 85.333 85.333c0 47.061-38.272 85.333-85.333 85.333zM832 213.333c-23.509 0-42.667 19.157-42.667 42.667s19.157 42.667 42.667 42.667 42.667-19.157 42.667-42.667-19.157-42.667-42.667-42.667z" />
<glyph unicode="&#xe91e;" glyph-name="building-9" d="M895.445 856.064c-0.128 0.939-0.299 1.792-0.555 2.688-0.981 3.669-2.56 7.083-5.163 9.643l-85.333 85.333c-3.968 4.011-9.387 6.272-15.061 6.272h-554.667c-5.675 0-11.093-2.261-15.104-6.229l-85.333-85.333c-2.603-2.603-4.181-5.973-5.163-9.643-0.213-0.939-0.384-1.792-0.512-2.731s-0.555-1.792-0.555-2.731v-896c0-11.776 9.557-21.333 21.333-21.333h725.333c11.776 0 21.333 9.557 21.333 21.333v896c0 0.939-0.427 1.792-0.555 2.731zM243.499 917.333h537.003l42.667-42.667h-622.336l42.667 42.667zM469.333-21.333v128h85.333v-128h-85.333zM853.333-21.333h-256v149.333c0 11.776-9.557 21.333-21.333 21.333h-128c-11.776 0-21.333-9.557-21.333-21.333v-149.333h-256v853.333h682.667v-853.333zM448 192h128c11.776 0 21.333 9.557 21.333 21.333v128c0 11.776-9.557 21.333-21.333 21.333h-128c-11.776 0-21.333-9.557-21.333-21.333v-128c0-11.776 9.557-21.333 21.333-21.333zM469.333 320h85.333v-85.333h-85.333v85.333zM661.333 192h128c11.776 0 21.333 9.557 21.333 21.333v128c0 11.776-9.557 21.333-21.333 21.333h-128c-11.776 0-21.333-9.557-21.333-21.333v-128c0-11.776 9.557-21.333 21.333-21.333zM682.667 320h85.333v-85.333h-85.333v85.333zM234.667 192h128c11.776 0 21.333 9.557 21.333 21.333v128c0 11.776-9.557 21.333-21.333 21.333h-128c-11.776 0-21.333-9.557-21.333-21.333v-128c0-11.776 9.557-21.333 21.333-21.333zM256 320h85.333v-85.333h-85.333v85.333zM448 405.333h128c11.776 0 21.333 9.557 21.333 21.333v128c0 11.776-9.557 21.333-21.333 21.333h-128c-11.776 0-21.333-9.557-21.333-21.333v-128c0-11.776 9.557-21.333 21.333-21.333zM469.333 533.333h85.333v-85.333h-85.333v85.333zM661.333 405.333h128c11.776 0 21.333 9.557 21.333 21.333v128c0 11.776-9.557 21.333-21.333 21.333h-128c-11.776 0-21.333-9.557-21.333-21.333v-128c0-11.776 9.557-21.333 21.333-21.333zM682.667 533.333h85.333v-85.333h-85.333v85.333zM234.667 405.333h128c11.776 0 21.333 9.557 21.333 21.333v128c0 11.776-9.557 21.333-21.333 21.333h-128c-11.776 0-21.333-9.557-21.333-21.333v-128c0-11.776 9.557-21.333 21.333-21.333zM256 533.333h85.333v-85.333h-85.333v85.333zM448 618.667h128c11.776 0 21.333 9.557 21.333 21.333v128c0 11.776-9.557 21.333-21.333 21.333h-128c-11.776 0-21.333-9.557-21.333-21.333v-128c0-11.776 9.557-21.333 21.333-21.333zM469.333 746.667h85.333v-85.333h-85.333v85.333zM661.333 618.667h128c11.776 0 21.333 9.557 21.333 21.333v128c0 11.776-9.557 21.333-21.333 21.333h-128c-11.776 0-21.333-9.557-21.333-21.333v-128c0-11.776 9.557-21.333 21.333-21.333zM682.667 746.667h85.333v-85.333h-85.333v85.333zM234.667 618.667h128c11.776 0 21.333 9.557 21.333 21.333v128c0 11.776-9.557 21.333-21.333 21.333h-128c-11.776 0-21.333-9.557-21.333-21.333v-128c0-11.776 9.557-21.333 21.333-21.333zM256 746.667h85.333v-85.333h-85.333v85.333z" />
<glyph unicode="&#xe91f;" glyph-name="bird-cage" d="M960 64h-64v362.667c0 199.765-145.365 365.781-335.744 398.933 9.813 13.909 15.744 30.763 15.744 49.067 0 47.061-38.272 85.333-85.333 85.333s-85.333-38.272-85.333-85.333c0-18.304 5.931-35.157 15.744-49.067-190.379-33.152-335.744-199.168-335.744-398.933v-362.667h-64c-11.776 0-21.333-9.557-21.333-21.333v-85.333c0-11.776 9.557-21.333 21.333-21.333h938.667c11.776 0 21.333 9.557 21.333 21.333v85.333c0 11.776-9.557 21.333-21.333 21.333zM853.333 426.667v-362.667h-128v638.677c78.208-66.603 128-165.504 128-276.011zM597.333 234.667v42.667h-213.333v-42.667h85.333v-170.667h-170.667v669.739c50.048 31.445 108.203 50.816 170.667 54.485v-404.224c0-11.776 9.557-21.333 21.333-21.333s21.333 9.557 21.333 21.333v404.267c62.464-3.669 120.619-23.040 170.667-54.485v-669.781h-170.667v170.667h85.333zM448 874.667c0 23.552 19.157 42.667 42.667 42.667s42.667-19.115 42.667-42.667-19.157-42.667-42.667-42.667-42.667 19.115-42.667 42.667zM128 426.667c0 110.507 49.792 209.408 128 276.011v-638.677h-128v362.667zM938.667-21.333h-896v42.667h896v-42.667z" />
<glyph unicode="&#xe920;" glyph-name="pet-bone" d="M957.696 744.576c-28.331 28.331-64.853 42.496-106.197 43.477 0.384 39.467-14.933 77.696-43.392 106.112-55.851 55.893-153.387 55.979-209.323 0.043-56.704-56.661-54.656-154.539 4.437-213.675 1.493-1.493 2.944-2.901 4.309-4.224l-327.979-328.021c-1.451 1.493-2.901 2.944-4.309 4.352-28.245 28.288-67.584 44.501-107.947 44.501-39.509 0-76.288-15.019-103.467-42.24-27.947-27.947-43.563-64.853-43.904-103.893-0.341-39.296 14.848-76.288 42.752-104.192 27.989-28.032 64.64-41.344 105.387-42.752-0.427-39.339 14.763-77.397 42.965-105.643 28.245-28.245 65.877-43.776 105.984-43.776 39.509 0 76.501 15.189 104.149 42.88 27.947 27.904 43.52 64.896 43.776 104.021 0.256 38.229-14.123 74.325-40.661 102.059l327.979 327.979c55.893-53.589 150.571-52.053 205.867 3.285 57.771 57.6 57.557 151.723-0.427 209.707zM928.043 564.992c-39.936-40.064-108.288-40.576-147.797-1.067-2.219 2.219-4.651 5.248-6.016 7.083-1.024 2.773-2.688 5.419-4.907 7.68-8.32 8.32-21.845 8.32-30.165 0l-361.856-361.813c-0.085-0.085-0.128-0.171-0.213-0.256-8.192-8.363-8.064-21.845 0.299-30.037 2.219-2.219 4.779-3.797 7.509-4.821 1.877-1.365 4.949-3.84 7.125-6.016 19.797-19.797 30.592-46.037 30.379-73.856-0.171-27.819-11.307-54.187-31.275-74.112-39.552-39.595-109.867-38.997-149.803 0.896-24.789 24.789-35.371 60.331-28.331 95.147 1.408 6.997-0.768 14.251-5.845 19.285-4.096 4.011-9.557 6.229-15.147 6.229-1.408 0-2.816-0.128-4.224-0.427-34.603-6.997-70.272 3.499-94.848 28.075-19.755 19.755-30.507 45.909-30.251 73.728 0.213 27.733 11.392 54.059 31.403 74.027 38.997 39.040 111.147 37.717 151.125-2.261 3.2-3.2 10.112-11.008 13.184-15.104 1.024-2.261 2.475-4.352 4.309-6.187 8.32-8.32 21.845-8.32 30.165 0l361.899 361.899c8.32 8.32 8.32 21.845 0 30.165-1.835 1.877-3.968 3.285-6.229 4.352-4.139 3.029-11.904 9.899-15.104 13.099-41.984 42.027-44.075 113.707-4.437 153.344 39.808 39.723 109.269 39.765 148.949-0.043 25.045-25.045 35.84-60.757 28.8-95.573-1.408-6.997 0.768-14.251 5.845-19.285 5.077-5.077 12.459-7.253 19.328-5.845 34.603 7.040 70.741-4.011 95.659-28.885 41.301-41.387 41.515-108.373 0.469-149.419z" />
<glyph unicode="&#xe921;" glyph-name="pet-box" d="M1024 341.333c0 29.269-19.84 53.717-46.677 61.355l-73.899 295.552c-7.125 28.501-32.64 48.427-62.080 48.427h-158.677c0 94.123-76.544 170.667-170.667 170.667s-170.667-76.544-170.667-170.667h-158.677c-29.44 0-54.997-19.925-62.123-48.469l-73.856-295.552c-26.837-7.595-46.677-32.043-46.677-61.312s19.84-53.717 46.677-61.355l73.856-295.509c7.168-28.544 32.725-48.469 62.123-48.469h658.688c29.397 0 54.955 19.925 62.123 48.512l73.856 295.509c26.837 7.595 46.677 32.043 46.677 61.312zM512 874.667c70.571 0 128-57.429 128-128h-256c0 70.571 57.429 128 128 128zM161.92 687.872c2.389 9.515 10.923 16.128 20.736 16.128h658.688c9.813 0 18.347-6.613 20.736-16.128l70.613-282.539h-841.387l70.613 282.539zM862.080-5.163c-2.432-9.515-10.923-16.171-20.736-16.171h-658.688c-9.813 0-18.347 6.656-20.736 16.171l-70.571 282.496h841.344l-70.613-282.496zM960 320h-896c-11.776 0-21.333 9.6-21.333 21.333s9.557 21.333 21.333 21.333h896c11.776 0 21.333-9.6 21.333-21.333s-9.557-21.333-21.333-21.333zM576 21.333c11.776 0 21.333 9.557 21.333 21.333v170.667c0 11.776-9.557 21.333-21.333 21.333s-21.333-9.557-21.333-21.333v-170.667c0-11.776 9.557-21.333 21.333-21.333zM704 21.333c11.776 0 21.333 9.557 21.333 21.333v170.667c0 11.776-9.557 21.333-21.333 21.333s-21.333-9.557-21.333-21.333v-170.667c0-11.776 9.557-21.333 21.333-21.333zM448 21.333c11.776 0 21.333 9.557 21.333 21.333v170.667c0 11.776-9.557 21.333-21.333 21.333s-21.333-9.557-21.333-21.333v-170.667c0-11.776 9.557-21.333 21.333-21.333zM320 21.333c11.776 0 21.333 9.557 21.333 21.333v170.667c0 11.776-9.557 21.333-21.333 21.333s-21.333-9.557-21.333-21.333v-170.667c0-11.776 9.557-21.333 21.333-21.333zM448 661.333c-11.776 0-21.333-9.557-21.333-21.333v-170.667c0-11.776 9.557-21.333 21.333-21.333s21.333 9.557 21.333 21.333v170.667c0 11.776-9.557 21.333-21.333 21.333zM320 661.333c-11.776 0-21.333-9.557-21.333-21.333v-170.667c0-11.776 9.557-21.333 21.333-21.333s21.333 9.557 21.333 21.333v170.667c0 11.776-9.557 21.333-21.333 21.333zM576 661.333c-11.776 0-21.333-9.557-21.333-21.333v-170.667c0-11.776 9.557-21.333 21.333-21.333s21.333 9.557 21.333 21.333v170.667c0 11.776-9.557 21.333-21.333 21.333zM704 661.333c-11.776 0-21.333-9.557-21.333-21.333v-170.667c0-11.776 9.557-21.333 21.333-21.333s21.333 9.557 21.333 21.333v170.667c0 11.776-9.557 21.333-21.333 21.333z" />
<glyph unicode="&#xe922;" glyph-name="pet-collar-2" d="M1022.933 602.709c-11.349 105.259-230.699 186.624-509.525 186.624-274.987 0-499.541-82.645-512.213-185.984-0.555-1.92-1.195-3.883-1.195-6.016v-259.072c0-96.683 164.352-158.123 355.755-179.925 1.536-0.512 2.944-1.195 4.608-1.365 31.573-3.413 64.213-5.291 97.152-6.4 10.411-0.384 20.779-0.64 31.147-0.811 5.76-0.085 11.435-0.469 17.237-0.469 1.28 0 2.645 0.085 3.925 0.128 1.237-0.043 2.389-0.085 3.584-0.085 47.829 0 96.171 2.56 143.147 7.424 2.304 0.213 4.523 0.256 6.869 0.512 0.64 0.085 1.109 0.384 1.707 0.512 192.555 21.205 358.869 82.944 358.869 180.48v259.072c0 1.92-0.64 3.627-1.067 5.376zM513.408 746.667c267.819 0 467.925-80.469 467.925-152.405 0-28.928-33.92-59.136-93.099-84.565-11.477 3.755-22.784 7.595-34.347 11.563-73.771 25.643-157.397 54.741-340.48 54.741-171.819 0-247.637-29.397-314.539-55.381-15.317-5.973-30.379-11.52-45.952-16.683-69.291 26.667-110.251 59.264-110.251 90.325 0 71.936 201.301 152.405 470.741 152.405zM640 411.179v-213.205c-44.373-3.883-87.851-5.803-129.749-5.931-14.464 0.043-28.757 0.299-42.795 0.811-1.408 0-2.859 0.043-4.267 0.085-27.349 0.981-53.675 2.901-79.189 5.333v212.907c4.181-0.384 8.363-0.512 12.544-0.896 13.739-1.109 27.52-2.091 41.387-2.816 5.973-0.299 11.947-0.64 17.92-0.896 18.816-0.768 37.632-1.237 56.405-1.28 0.128 0 0.256 0 0.384 0 0.256 0 0.469 0 0.725 0 19.413 0 38.869 0.555 58.283 1.365 3.883 0.128 7.765 0.384 11.605 0.555 17.877 0.896 35.669 2.133 53.376 3.669 1.152 0.171 2.261 0.213 3.371 0.299zM660.651 455.808c-0.555-0.043-1.109 0.213-1.664 0.171-23.253-2.56-46.635-4.437-70.187-5.803-1.792-0.085-3.584-0.171-5.376-0.256-23.253-1.237-46.635-1.92-70.059-1.92-0.853 0-1.664 0.043-2.517 0.043-21.077 0.043-42.197 0.725-63.317 1.707-5.632 0.256-11.264 0.597-16.853 0.896-19.371 1.152-38.741 2.688-58.112 4.651-56.917 6.101-108.416 15.616-153.088 27.477 62.208 24.149 134.4 50.56 293.931 50.56 162.347 0 242.816-23.723 309.803-46.677-46.123-13.312-100.779-24.149-162.56-30.848zM42.667 338.261v177.152c58.667-49.92 171.733-83.456 298.667-99.371v-212.821c-178.56 23.765-298.667 81.749-298.667 135.040zM682.667 202.581v213.248c126.805 15.744 239.957 49.28 298.667 99.328v-176.896c0-53.888-116.864-112.384-298.667-135.68zM576 362.667h-128c-11.776 0-21.333-9.557-21.333-21.333v-85.333c0-11.776 9.557-21.333 21.333-21.333h128c11.776 0 21.333 9.557 21.333 21.333v85.333c0 11.776-9.557 21.333-21.333 21.333zM554.667 277.333h-85.333v42.667h85.333v-42.667zM812.416 320c0-23.564-19.103-42.667-42.667-42.667s-42.667 19.103-42.667 42.667c0 23.564 19.103 42.667 42.667 42.667s42.667-19.103 42.667-42.667zM938.667 362.667c0-23.564-19.103-42.667-42.667-42.667s-42.667 19.103-42.667 42.667c0 23.564 19.103 42.667 42.667 42.667s42.667-19.103 42.667-42.667zM296.875 320c0-23.564-19.103-42.667-42.667-42.667s-42.667 19.103-42.667 42.667c0 23.564 19.103 42.667 42.667 42.667s42.667-19.103 42.667-42.667zM170.667 362.667c0-23.564-19.103-42.667-42.667-42.667s-42.667 19.103-42.667 42.667c0 23.564 19.103 42.667 42.667 42.667s42.667-19.103 42.667-42.667z" />
<glyph unicode="&#xe923;" glyph-name="pet-litter-scoop" d="M1005.269 639.531l-301.653 301.696c-24.149 24.149-66.389 24.149-90.539 0l-331.904-331.861c-69.675-69.675-73.643-179.627-13.525-254.933l-227.797-227.797c-41.557-41.6-41.6-109.269 0-150.869 20.181-20.139 46.933-31.189 75.435-31.189s55.253 11.093 75.435 31.189l227.755 227.755c33.877-27.136 75.179-42.624 119.211-42.624 51.285 0 99.541 19.968 135.808 56.235l331.819 331.861c24.917 25.003 24.917 65.579-0.043 90.539zM975.104 609.365c0.213-0.213 0.299-0.512 0.512-0.768l-486.101-285.483-102.315 102.315 286.763 485.12 301.141-301.184zM160.512 5.973c-24.149-24.149-66.347-24.149-90.496 0-24.96 24.96-24.96 65.579 0 90.539l226.261 226.261 90.539-90.539-226.304-226.261zM643.243 247.339c-56.405-56.405-154.795-56.405-211.2 0l-120.704 120.661c-58.197 58.24-58.197 153.003 0 211.2l286.549 286.549-255.872-432.811c-4.949-8.405-3.627-19.072 3.285-25.941l125.696-125.696c4.096-4.139 9.557-6.229 15.104-6.229 3.712 0 7.424 0.939 10.795 2.944l428.971 251.989-282.624-282.667zM688.521 714.994l-30.17 30.17 60.339 60.339 30.17-30.17-60.339-60.339zM809.141 714.975l-60.322-60.365-30.182 30.161 60.322 60.365 30.182-30.161zM869.515 654.648l-60.339-60.339-30.17 30.17 60.339 60.339 30.17-30.17zM628.124 715.001l30.17-30.17-60.339-60.339-30.17 30.17 60.339 60.339zM507.448 533.949l60.339 60.339 30.17-30.17-60.339-60.339-30.17 30.17zM597.95 443.409l-30.17 30.17 60.339 60.339 30.17-30.17-60.339-60.339zM477.294 383.072l-30.17 30.17 60.339 60.339 30.17-30.17-60.339-60.339zM628.166 594.286l60.365 60.322 30.161-30.182-60.365-60.322-30.161 30.182zM718.679 503.775l-30.17 30.17 60.339 60.339 30.17-30.17-60.339-60.339z" />
<glyph unicode="&#xe924;" glyph-name="pet-paw" d="M256 523.392c0 106.965-56.235 190.763-128 190.763s-128-83.797-128-190.763 56.235-190.763 128-190.763 128 83.797 128 190.763zM128 375.296c-46.251 0-85.333 67.84-85.333 148.096s39.083 148.096 85.333 148.096 85.333-67.84 85.333-148.096-39.083-148.096-85.333-148.096zM368.171 590.507c0.256 0 3.072 0.043 3.371 0.043 33.451 1.323 63.403 22.101 84.352 58.411 19.157 33.237 28.672 76.373 26.88 121.429-3.797 95.573-57.259 170.453-125.013 170.453-0.043 0-0.043 0-0.085 0-33.493-1.323-63.445-22.101-84.352-58.453-19.115-33.195-28.672-76.331-26.88-121.387 3.797-95.616 57.259-170.496 121.728-170.496zM310.272 861.099c7.723 13.44 24.363 36.139 50.688 37.12 40.107 0 76.373-59.307 79.147-129.493 1.493-37.163-6.059-72.107-21.248-98.475-7.765-13.397-24.405-36.096-49.067-37.035l-1.621-21.376v21.333c-40.107 0-76.331 59.307-79.104 129.493-1.493 37.12 6.059 72.064 21.205 98.432zM883.669 714.112c-71.765 0-128-83.797-128-190.763s56.235-190.763 128-190.763 128 83.797 128 190.763-56.235 190.763-128 190.763zM883.669 375.296c-46.251 0-85.333 67.84-85.333 148.096s39.083 148.096 85.333 148.096 85.333-67.84 85.333-148.096-39.083-148.096-85.333-148.096zM640.085 590.549c0.256 0 3.072-0.043 3.371-0.043 64.469 0 117.973 74.88 121.771 170.496 1.792 45.056-7.765 88.149-26.88 121.387-20.907 36.395-50.859 57.131-87.68 58.496-64.512 0-118.016-74.88-121.771-170.496-1.792-45.056 7.765-88.149 26.88-121.429 20.949-36.352 50.901-57.088 84.309-58.411zM652.288 898.176v0c24.704-0.939 41.344-23.637 49.067-37.077 15.147-26.325 22.699-61.312 21.248-98.432-2.773-70.229-39.040-129.493-79.104-129.493v-21.333l-1.707 21.376c-24.661 0.939-41.301 23.637-49.024 37.035-15.147 26.325-22.699 61.312-21.248 98.475 2.773 70.144 39.040 129.451 80.768 129.451zM672.341 377.259c-17.152 85.675-69.931 177.195-166.485 177.195s-149.333-91.563-166.485-177.237c-5.419-27.093-30.507-53.589-57.045-81.707-41.728-44.117-88.96-94.123-88.96-169.941-0.043-130.261 161.963-189.568 312.448-189.568s312.491 59.307 312.491 189.525c0 75.819-47.232 125.824-88.96 169.941-26.496 28.16-51.584 54.656-57.003 81.792zM505.813-21.333c-134.101 0-269.824 50.475-269.824 146.859 0 58.88 39.296 100.437 77.312 140.672 30.891 32.683 60.032 63.531 67.883 102.613 6.741 33.536 35.584 142.976 124.672 142.976s117.931-109.397 124.672-142.933c7.851-39.125 36.992-70.016 67.883-102.656 38.016-40.192 77.312-81.792 77.312-140.672-0.043-96.384-135.808-146.859-269.909-146.859z" />
<glyph unicode="&#xe925;" glyph-name="pet-yarn-ball" d="M984.619 26.283c-25.259 59.008-125.824 143.061-306.133 162.901 105.771 77.739 174.848 202.667 174.848 343.637 0 235.264-191.403 426.667-426.667 426.667s-426.667-191.403-426.667-426.667 191.403-426.667 426.667-426.667c67.541 0 131.243 16.213 188.075 44.245 199.168-4.565 300.501-87.851 326.485-132.608 8.576-14.805 7.765-22.571 7.168-23.68-1.451-1.365-13.397-4.736-41.301 5.76-169.728 64.043-355.029 31.232-503.936 4.907-182.955-32.341-287.659-45.44-313.216 61.867-2.731 11.435-14.123 18.688-25.685 15.787-11.477-2.688-18.56-14.165-15.829-25.685 21.717-91.307 85.163-117.931 170.368-117.931 56.32 0 122.197 11.605 191.829 23.979 151.168 26.752 322.603 57.045 481.451-2.816 50.219-18.944 75.136-7.936 87.168 4.651 13.909 14.592 15.915 37.077 5.376 61.653zM605.568 193.323c-1.195 0-2.304 0.085-3.499 0.085-35.115 15.701-68.309 35.328-99.029 58.496 24.363 22.272 46.763 46.592 66.688 72.789 39.211-28.117 82.901-49.28 129.237-62.293-27.349-27.477-58.837-50.773-93.397-69.077zM330.411 549.163c-18.944-34.219-46.379-62.976-79.317-83.797-75.861 20.395-146.645 58.368-205.824 110.72 4.309 38.229 14.251 74.837 28.971 108.928 66.432-75.008 157.013-123.008 256.171-135.851zM347.904 731.093c-64.64 10.24-122.24 48.085-157.995 103.467 14.336 11.307 29.44 21.504 45.355 30.677 54.187-28.587 94.336-77.099 112.64-134.144zM193.195 439.040c-20.693-6.101-42.539-9.515-65.195-9.515-25.557 0-50.347 4.821-74.155 12.928-6.315 25.984-9.984 52.949-10.667 80.683 45.525-35.541 96-64.213 150.016-84.096zM128 386.859c151.083 0 273.963 122.923 273.963 273.963 0 91.563-46.507 176.64-121.088 227.072 36.608 15.104 76.117 24.405 117.333 27.477 65.28-69.12 101.376-158.976 101.376-254.549 0-204.245-165.589-370.475-369.579-371.584-25.6 31.104-46.080 66.475-60.971 104.619 19.328-4.224 38.912-6.997 58.965-6.997zM542.293 660.821c0 93.525-31.104 182.144-87.851 254.592 48.469-3.499 94.336-16 136.192-35.883 32.512-68.608 49.365-142.037 49.365-218.709 0-222.336-140.843-416.512-351.104-486.016-44.459 17.195-84.779 42.325-119.509 73.771 209.067 20.821 372.907 197.76 372.907 412.245zM640.085 446.72c40.917-32.811 89.813-53.035 142.123-58.368-13.227-32.427-30.891-62.507-52.011-89.813-48.939 10.837-95.232 31.701-136.064 61.099 17.792 27.52 33.28 56.576 45.952 87.083zM682.027 672.043c23.168 24.021 43.435 50.432 60.117 79.104 21.205-30.549 38.101-64.256 49.749-100.352-34.517-45.483-76.501-85.333-123.989-117.077 9.557 41.045 14.763 83.541 14.763 127.104 0 3.755-0.555 7.424-0.64 11.221zM796.501 430.976c-48.597 2.901-93.781 20.779-131.243 51.371 52.352 31.019 99.584 70.4 139.307 116.651 3.755-21.547 6.101-43.563 6.101-66.176 0-35.328-5.205-69.376-14.165-101.845zM712.789 788.053c-10.112-19.328-21.888-37.589-35.2-54.827-4.864 37.589-13.355 74.325-25.813 110.037 22.272-16.213 42.709-34.731 61.013-55.211zM157.397 806.229c45.611-67.157 119.040-110.891 199.936-118.827 1.024-8.747 1.92-17.579 1.92-26.539 0-24.661-3.968-48.427-11.179-70.741-99.157 9.472-189.739 58.197-252.672 136.021 17.195 29.312 37.931 56.32 61.995 80.085zM356.437 155.563c40.875 18.389 78.805 41.301 113.237 68.181 25.899-20.267 53.419-38.187 82.389-53.461-39.339-13.653-81.451-21.461-125.397-21.461-24.021 0-47.445 2.517-70.229 6.741z" />
<glyph unicode="&#xe926;" glyph-name="heart-beat" d="M1002.667 362.667h-320c-8.064 0-15.445-4.565-19.072-11.776l-39.467-78.933-70.272 245.973c-2.432 8.448-9.771 14.592-18.56 15.403-8.789 0.939-17.109-3.84-21.035-11.691l-90.197-180.437-64.939 97.365c-3.84 5.76-10.24 9.301-17.152 9.515-7.125 0.256-13.483-2.944-17.664-8.533l-57.643-76.885h-245.333c-11.776 0-21.333-9.557-21.333-21.333s9.557-21.333 21.333-21.333h256c6.699 0 13.056 3.157 17.067 8.533l45.867 61.227 68.608-102.869c4.224-6.315 11.648-9.728 19.072-9.472 7.595 0.469 14.336 4.949 17.749 11.733l82.133 164.267 70.272-245.931c2.432-8.448 9.771-14.549 18.56-15.403 0.725-0.085 1.323-0.085 2.005-0.085 8.021 0 15.445 4.523 19.072 11.776l58.112 116.224h306.816c11.776 0 21.333 9.557 21.333 21.333s-9.557 21.333-21.333 21.333zM102.869 405.376c2.688 0 5.419 0.512 8.064 1.579 10.88 4.437 16.128 16.896 11.648 27.819-24.704 60.544-37.248 120.064-37.248 176.853 0 169.557 94.379 252.672 187.904 259.797 91.221 7.168 193.579-56.064 217.685-212.565 1.579-10.368 10.539-18.048 21.077-18.048s19.499 7.68 21.077 18.091c24.448 158.677 130.048 222.208 223.616 215.253 90.581-6.955 181.973-82.987 181.973-237.312 0-61.781-17.152-129.408-51.072-201.003-5.035-10.667-0.512-23.381 10.155-28.416 10.624-4.992 23.339-0.512 28.416 10.155 36.565 77.355 55.168 151.168 55.168 219.264 0 180.651-114.731 271.701-221.355 279.808-92.117 6.912-199.168-44.715-247.979-170.752-48.043 123.989-152.917 175.147-242.005 168.064-113.152-8.619-227.328-105.472-227.328-302.336 0-62.336 13.611-127.275 40.448-192.939 3.371-8.32 11.349-13.312 19.755-13.312zM784.128 268.928c-105.344-138.965-233.6-248.149-273.024-280.363-42.752 30.251-184.363 136.149-292.181 280.277-7.125 9.472-20.48 11.349-29.867 4.309-9.429-7.083-11.349-20.437-4.309-29.867 132.395-176.896 308.053-294.229 315.477-299.136 3.584-2.389 7.723-3.541 11.776-3.541 4.608 0 9.259 1.493 13.056 4.437 6.656 5.12 164.053 127.829 293.077 298.112 7.125 9.387 5.291 22.741-4.139 29.867-9.344 7.083-22.699 5.333-29.867-4.096z" />
<glyph unicode="&#xe927;" glyph-name="medicine-capsule-1" d="M901.717 837.717c-56.192 56.192-131.2 87.125-211.2 87.125s-155.008-30.933-211.157-87.125l-392.149-392.192c-56.235-56.235-87.211-131.243-87.211-211.243s30.976-155.008 87.125-211.157c56.192-56.192 131.2-87.125 211.2-87.125s155.008 30.933 211.157 87.125l392.192 392.192c56.192 56.149 87.168 131.2 87.168 211.157 0.043 80.043-30.933 155.008-87.125 211.243zM479.317 53.291c-48.128-48.128-112.384-74.624-180.992-74.624s-132.907 26.496-181.035 74.624-74.624 112.427-74.624 180.992c0 68.608 26.539 132.907 74.667 181.035l180.992 180.992 362.027-362.027-181.035-180.992zM871.552 445.483l-180.992-181.035-362.069 362.069 180.992 181.035c48.128 48.128 112.427 74.624 180.992 74.624 68.608 0 132.907-26.496 181.035-74.624s74.667-112.427 74.667-181.035c0.043-68.608-26.496-132.907-74.624-181.035zM539.648 747.264l-90.453-90.539c-8.32-8.32-8.32-21.888 0-30.165 4.181-4.181 9.643-6.229 15.104-6.229s10.923 2.091 15.104 6.229l90.453 90.539c58.24 58.197 153.045 58.197 211.2 0 8.32-8.32 21.845-8.32 30.165 0s8.32 21.845 0 30.165c-74.837 74.837-196.651 74.837-271.573 0z" />
<glyph unicode="&#xe928;" glyph-name="file-add-2" d="M148.693 659.968h192c11.776 0 21.333 9.515 21.333 21.333 0 11.776-9.557 21.333-21.333 21.333h-192c-11.776 0-21.333-9.557-21.333-21.333 0-11.861 9.557-21.333 21.333-21.333zM511.36 553.301c0 11.776-9.557 21.333-21.333 21.333h-341.333c-11.776 0-21.333-9.557-21.333-21.333 0-11.819 9.557-21.333 21.333-21.333h341.333c11.819 0 21.333 9.472 21.333 21.333zM426.027 425.301c0 11.776-9.557 21.333-21.333 21.333h-256c-11.776 0-21.333-9.557-21.333-21.333 0-11.819 9.557-21.333 21.333-21.333h256c11.819 0 21.333 9.472 21.333 21.333zM148.693 318.635c-11.776 0-21.333-9.557-21.333-21.333 0-11.819 9.557-21.333 21.333-21.333h213.333c11.776 0 21.333 9.515 21.333 21.333 0 11.776-9.557 21.333-21.333 21.333h-213.333zM746.667 490.667c-152.917 0-277.333-124.416-277.333-277.333s124.416-277.333 277.333-277.333 277.333 124.416 277.333 277.333c0 152.917-124.416 277.333-277.333 277.333zM746.667-21.333c-129.408 0-234.667 105.259-234.667 234.667s105.259 234.667 234.667 234.667 234.667-105.259 234.667-234.667-105.259-234.667-234.667-234.667zM863.019 234.667h-95.019v95.019c0 11.733-9.557 21.333-21.333 21.333s-21.333-9.6-21.333-21.333v-95.019h-95.104c-11.776 0-21.333-9.557-21.333-21.333s9.557-21.333 21.333-21.333h95.104v-95.061c0-11.776 9.557-21.333 21.333-21.333s21.333 9.557 21.333 21.333v95.061h95.019c11.776 0 21.333 9.557 21.333 21.333s-9.557 21.333-21.333 21.333zM42.667 915.968h426.667v-192c0-11.819 9.557-21.333 21.333-21.333h192v-170.667h42.667v192c0 2.859-0.597 5.632-1.664 8.192-1.067 2.645-2.645 4.949-4.608 6.912l-213.291 213.333c-1.963 1.963-4.309 3.499-6.912 4.608-2.603 1.067-5.333 1.664-8.192 1.664h-469.333c-11.776 0-21.333-9.557-21.333-21.333v-896c0-11.819 9.557-21.333 21.333-21.333h448v42.667h-426.667v853.291zM512 885.803l140.501-140.501h-140.501v140.501z" />
<glyph unicode="&#xe929;" glyph-name="file-block-2" d="M148.949 661.333h192c11.776 0 21.333 9.557 21.333 21.333s-9.515 21.333-21.333 21.333h-192c-11.776 0-21.333-9.557-21.333-21.333s9.557-21.333 21.333-21.333zM511.616 554.667c0 11.776-9.557 21.333-21.333 21.333h-341.333c-11.776 0-21.333-9.557-21.333-21.333s9.557-21.333 21.333-21.333h341.333c11.819 0 21.333 9.557 21.333 21.333zM426.283 426.667c0 11.776-9.557 21.333-21.333 21.333h-256c-11.776 0-21.333-9.557-21.333-21.333s9.557-21.333 21.333-21.333h256c11.819 0 21.333 9.557 21.333 21.333zM148.949 320c-11.776 0-21.333-9.557-21.333-21.333s9.557-21.333 21.333-21.333h213.333c11.776 0 21.333 9.557 21.333 21.333s-9.515 21.333-21.333 21.333h-213.333zM746.667 490.667c-152.917 0-277.333-124.416-277.333-277.333s124.416-277.333 277.333-277.333 277.333 124.416 277.333 277.333c0 152.917-124.416 277.333-277.333 277.333zM746.667 448c57.045 0 109.355-20.48 150.059-54.443l-330.283-330.283c-33.963 40.704-54.443 93.056-54.443 150.059 0 129.408 105.259 234.667 234.667 234.667zM746.667-21.333c-57.045 0-109.355 20.48-150.059 54.443l330.283 330.24c33.963-40.704 54.443-93.013 54.443-150.016 0-129.408-105.259-234.667-234.667-234.667zM42.667 917.333h426.667v-192c0-11.776 9.557-21.333 21.333-21.333h192v-170.667h42.667v192c0 2.859-0.597 5.632-1.664 8.192-1.067 2.603-2.645 4.949-4.608 6.912l-213.291 213.291c-1.963 1.92-4.309 3.541-6.912 4.565-2.56 1.109-5.333 1.707-8.192 1.707h-469.333c-11.776 0-21.333-9.557-21.333-21.333v-896c0-11.776 9.557-21.333 21.333-21.333h448v42.667h-426.667v853.333zM512 887.168l140.501-140.501h-140.501v140.501z" />
<glyph unicode="&#xe92a;" glyph-name="file-edit-2" d="M148.523 704c-11.776 0-21.333-9.557-21.333-21.333s9.557-21.333 21.333-21.333h192c11.776 0 21.333 9.557 21.333 21.333s-9.515 21.333-21.333 21.333h-192zM489.856 576h-341.333c-11.776 0-21.333-9.557-21.333-21.333s9.557-21.333 21.333-21.333h341.333c11.776 0 21.333 9.557 21.333 21.333s-9.515 21.333-21.333 21.333zM425.856 426.667c0 11.776-9.557 21.333-21.333 21.333h-256c-11.776 0-21.333-9.557-21.333-21.333s9.557-21.333 21.333-21.333h256c11.819 0 21.333 9.557 21.333 21.333zM148.523 320c-11.776 0-21.333-9.557-21.333-21.333s9.557-21.333 21.333-21.333h213.333c11.776 0 21.333 9.557 21.333 21.333s-9.515 21.333-21.333 21.333h-213.333zM1017.771 356.437l-106.667 106.667c-8.32 8.32-21.845 8.32-30.165 0l-320.085-320.085c-2.432-2.432-3.925-5.333-4.949-8.405-0.085-0.299-0.384-0.555-0.469-0.853l-42.667-149.333c-2.133-7.467-0.043-15.488 5.419-20.949 4.053-4.053 9.515-6.229 15.104-6.229 1.963 0 3.925 0.256 5.845 0.811l149.333 42.667c0.299 0.085 0.512 0.384 0.853 0.469 3.072 0.981 5.973 2.517 8.405 4.949l320.085 320.085c8.277 8.32 8.277 21.845-0.043 30.208zM564.309 9.643l22.144 77.525 55.424-55.381-77.568-22.144zM682.581 51.413l-76.501 76.501 204.587 204.587 76.501-76.501-204.587-204.587zM917.333 286.165l-76.501 76.501 55.168 55.168 76.501-76.501-55.168-55.168zM42.667 917.333h426.667v-192c0-11.776 9.557-21.333 21.333-21.333h191.957l-0.725-257.451 42.667-0.128 0.768 278.827v0.085c0 0.853-0.384 1.536-0.469 2.347-0.213 2.005-0.384 4.011-1.195 5.888-1.067 2.603-2.645 4.949-4.608 6.912l-213.291 213.291c-1.963 1.92-4.309 3.541-6.912 4.565-2.56 1.067-5.333 1.664-8.192 1.664h-469.333c-11.776 0-21.333-9.557-21.333-21.333v-896c0-11.776 9.557-21.333 21.333-21.333h448v42.667h-426.667v853.333zM512 887.168l140.501-140.501h-140.501v140.501z" />
<glyph unicode="&#xe92b;" glyph-name="file-favorite-heart-2" d="M148.437 661.333h192c11.776 0 21.333 9.557 21.333 21.333s-9.557 21.333-21.333 21.333h-192c-11.776 0-21.333-9.557-21.333-21.333s9.515-21.333 21.333-21.333zM511.104 554.667c0 11.776-9.557 21.333-21.333 21.333h-341.333c-11.776 0-21.333-9.557-21.333-21.333s9.557-21.333 21.333-21.333h341.333c11.776 0 21.333 9.557 21.333 21.333zM425.771 426.667c0 11.776-9.557 21.333-21.333 21.333h-256c-11.776 0-21.333-9.557-21.333-21.333s9.557-21.333 21.333-21.333h256c11.776 0 21.333 9.557 21.333 21.333zM148.437 320c-11.776 0-21.333-9.557-21.333-21.333s9.557-21.333 21.333-21.333h213.333c11.776 0 21.333 9.557 21.333 21.333s-9.557 21.333-21.333 21.333h-213.333zM885.461 406.784c-40.576 0-88.363-20.992-118.485-76.16-30.123 55.168-77.909 76.16-118.485 76.16-67.584 0-137.515-56.491-137.515-150.912 0-135.723 233.515-307.115 243.456-314.325 3.712-2.731 8.149-4.096 12.544-4.096s8.832 1.365 12.544 4.096c9.941 7.211 243.456 178.603 243.456 314.325 0.043 94.421-69.888 150.912-137.515 150.912zM767.019-14.592c-69.547 53.163-213.333 181.419-213.333 270.464 0 67.755 48.213 108.245 94.848 108.245 46.336 0 82.859-36.907 97.749-98.688 4.608-19.2 36.864-19.2 41.515 0 14.848 61.781 51.371 98.688 97.749 98.688 46.635 0 94.848-40.491 94.848-108.245-0.043-88.917-143.872-217.259-213.376-270.464zM42.667 917.333h426.667v-192c0-11.776 9.557-21.333 21.333-21.333h192v-213.333h42.667v234.667c0 2.859-0.597 5.632-1.664 8.192-1.067 2.603-2.645 4.949-4.608 6.912l-213.291 213.291c-1.963 1.92-4.309 3.541-6.912 4.565-2.56 1.109-5.333 1.707-8.192 1.707h-469.333c-11.776 0-21.333-9.557-21.333-21.333v-896c0-11.776 9.557-21.333 21.333-21.333h511.147v42.667h-489.813v853.333zM512 887.168l140.501-140.501h-140.501v140.501z" />
<glyph unicode="&#xe92c;" glyph-name="folder-2" d="M1002.667 21.333h-981.333c-11.776 0-21.333 9.557-21.333 21.333v810.667c0 11.776 9.557 21.333 21.333 21.333h298.667c5.675 0 11.093-2.261 15.104-6.229l79.061-79.104h588.501c11.776 0 21.333-9.557 21.333-21.333v-725.333c0-11.776-9.557-21.333-21.333-21.333zM42.667 64h938.667v682.667h-576c-5.675 0-11.093 2.261-15.104 6.229l-79.061 79.104h-268.501v-768z" />
<glyph unicode="&#xe92d;" glyph-name="folder-document" d="M960 618.667h-64v64c0 11.776-9.557 21.333-21.333 21.333h-64v64c0 11.776-9.557 21.333-21.333 21.333h-460.501l-79.061 79.104c-4.011 3.968-9.429 6.229-15.104 6.229h-213.333c-11.776 0-21.333-9.557-21.333-21.333v-597.333c0-11.776 9.557-21.333 21.333-21.333s21.333 9.557 21.333 21.333v576h183.168l79.104-79.104c3.968-3.968 9.387-6.229 15.061-6.229h448v-42.667h-661.333c-11.776 0-21.333-9.557-21.333-21.333v-512c0-11.776 9.557-21.333 21.333-21.333s21.333 9.557 21.333 21.333v490.667h725.333v-42.667h-661.333c-11.776 0-21.333-9.557-21.333-21.333v-512c0-11.776 9.557-21.333 21.333-21.333h768c11.776 0 21.333 9.557 21.333 21.333v512c0 11.776-9.557 21.333-21.333 21.333zM938.667 106.667h-725.333v469.333h725.333v-469.333zM832 490.667h-512c-11.776 0-21.333-9.557-21.333-21.333s9.557-21.333 21.333-21.333h512c11.776 0 21.333 9.557 21.333 21.333s-9.557 21.333-21.333 21.333zM554.667 362.667h-234.667c-11.776 0-21.333-9.557-21.333-21.333s9.557-21.333 21.333-21.333h234.667c11.776 0 21.333 9.557 21.333 21.333s-9.557 21.333-21.333 21.333zM554.667 234.667h-234.667c-11.776 0-21.333-9.557-21.333-21.333s9.557-21.333 21.333-21.333h234.667c11.776 0 21.333 9.557 21.333 21.333s-9.557 21.333-21.333 21.333zM832 405.333h-170.667c-11.776 0-21.333-9.557-21.333-21.333v-42.667c0-11.776 9.557-21.333 21.333-21.333s21.333 9.557 21.333 21.333v21.333h42.667v-128h-42.667c-11.776 0-21.333-9.557-21.333-21.333s9.557-21.333 21.333-21.333h128c11.776 0 21.333 9.557 21.333 21.333s-9.557 21.333-21.333 21.333h-42.667v128h42.667v-21.333c0-11.776 9.557-21.333 21.333-21.333s21.333 9.557 21.333 21.333v42.667c0 11.776-9.557 21.333-21.333 21.333z" />
<glyph unicode="&#xe92e;" glyph-name="arrow-box-down-3" d="M512 298.667c-5.461 0-10.923 2.091-15.104 6.229l-256 256c-8.32 8.32-8.32 21.845 0 30.165s21.845 8.32 30.165 0l240.939-240.896 240.896 240.896c8.32 8.32 21.845 8.32 30.165 0s8.32-21.845 0-30.165l-256-256c-4.139-4.139-9.6-6.229-15.061-6.229zM1002.667-64.171h-981.333c-11.776 0-21.333 9.557-21.333 21.333v981.333c0 11.776 9.557 21.333 21.333 21.333h981.333c11.776 0 21.333-9.557 21.333-21.333v-981.333c0-11.776-9.557-21.333-21.333-21.333zM42.667-21.504h938.667v938.667h-938.667v-938.667z" />
<glyph unicode="&#xe92f;" glyph-name="arrow-box-left-3" d="M1002.667-64.171h-981.333c-11.776 0-21.333 9.557-21.333 21.333v981.333c0 11.776 9.557 21.333 21.333 21.333h981.333c11.776 0 21.333-9.557 21.333-21.333v-981.333c0-11.776-9.557-21.333-21.333-21.333zM42.667-21.504h938.667v938.667h-938.667v-938.667zM639.872 170.496c-5.461 0-10.923 2.091-15.104 6.229l-256 256c-8.32 8.32-8.32 21.845 0 30.165l256 256c8.32 8.32 21.845 8.32 30.165 0s8.32-21.845 0-30.165l-240.896-240.896 240.896-240.896c8.32-8.32 8.32-21.845 0-30.165-4.181-4.181-9.6-6.272-15.061-6.272z" />
<glyph unicode="&#xe930;" glyph-name="arrow-box-right-3" d="M1002.667-64.171h-981.333c-11.776 0-21.333 9.557-21.333 21.333v981.333c0 11.776 9.557 21.333 21.333 21.333h981.333c11.776 0 21.333-9.557 21.333-21.333v-981.333c0-11.776-9.557-21.333-21.333-21.333zM42.667-21.504h938.667v938.667h-938.667v-938.667zM384.128 170.496c-5.461 0-10.923 2.091-15.104 6.229-8.32 8.32-8.32 21.845 0 30.165l240.896 240.896-240.853 240.981c-8.32 8.32-8.32 21.845 0 30.165s21.845 8.32 30.165 0l256-256c8.32-8.32 8.32-21.845 0-30.165l-256-256c-4.181-4.181-9.643-6.272-15.104-6.272z" />
<glyph unicode="&#xe931;" glyph-name="arrow-box-up-3" d="M1002.667-64.171h-981.333c-11.776 0-21.333 9.557-21.333 21.333v981.333c0 11.776 9.557 21.333 21.333 21.333h981.333c11.776 0 21.333-9.557 21.333-21.333v-981.333c0-11.776-9.557-21.333-21.333-21.333zM42.667-21.504h938.667v938.667h-938.667v-938.667zM768 298.667c-5.461 0-10.923 2.091-15.104 6.229l-240.896 240.939-240.896-240.896c-8.32-8.32-21.845-8.32-30.165 0s-8.32 21.845 0 30.165l256 256c8.32 8.32 21.845 8.32 30.165 0l256-256c8.32-8.32 8.32-21.845 0-30.165-4.181-4.181-9.643-6.272-15.104-6.272z" />
<glyph unicode="&#xe932;" glyph-name="arrow-left-7" d="M1002.667 405.163h-981.333c-11.776 0-21.333 9.557-21.333 21.333s9.557 21.333 21.333 21.333h981.333c11.776 0 21.333-9.557 21.333-21.333s-9.557-21.333-21.333-21.333zM554.667-64.171c-5.035 0-10.027 1.749-14.080 5.333l-533.333 469.333c-4.608 4.053-7.253 9.899-7.253 16s2.645 11.947 7.253 16l533.333 469.333c8.832 7.808 22.272 6.955 30.123-1.92 7.765-8.832 6.912-22.315-1.92-30.080l-515.157-453.333 515.115-453.333c8.875-7.765 9.728-21.248 1.92-30.080-4.224-4.779-10.069-7.253-16-7.253z" />
<glyph unicode="&#xe933;" glyph-name="arrow-left-12" d="M789.333-64c-5.035 0-10.069 1.749-14.123 5.376l-554.667 490.667c-4.565 4.053-7.211 9.813-7.211 15.957s2.645 11.904 7.211 15.957l554.667 490.667c8.789 7.893 22.272 7.083 30.123-1.835 7.808-8.832 6.997-22.272-1.835-30.080l-536.661-474.709 536.619-474.709c8.832-7.808 9.685-21.248 1.835-30.080-4.181-4.779-10.069-7.211-15.957-7.211z" />
<glyph unicode="&#xe934;" glyph-name="arrow-right-7" d="M1002.667 405.163h-981.333c-11.776 0-21.333 9.557-21.333 21.333s9.557 21.333 21.333 21.333h981.333c11.776 0 21.333-9.557 21.333-21.333s-9.557-21.333-21.333-21.333zM469.333-64.171c-5.931 0-11.776 2.475-16 7.253-7.765 8.832-6.912 22.315 1.92 30.080l515.115 453.333-515.115 453.333c-8.875 7.765-9.728 21.248-1.92 30.080 7.808 8.875 21.333 9.728 30.123 1.92l533.333-469.333c4.565-4.053 7.211-9.856 7.211-16s-2.645-11.947-7.253-16l-533.333-469.333c-4.053-3.584-9.045-5.333-14.080-5.333z" />
<glyph unicode="&#xe935;" glyph-name="arrow-right-12" d="M234.667-64c-5.888 0-11.776 2.432-16 7.211-7.808 8.832-6.997 22.272 1.835 30.080l536.661 474.709-536.619 474.709c-8.832 7.808-9.685 21.248-1.877 30.080 7.808 8.875 21.333 9.685 30.123 1.835l554.667-490.667c4.565-4.053 7.211-9.813 7.211-15.957s-2.645-11.904-7.211-15.957l-554.667-490.667c-4.053-3.627-9.088-5.376-14.123-5.376z" />
<glyph unicode="&#xe936;" glyph-name="logo-digg" d="M256 618.667h-192c-11.776 0-21.333-9.557-21.333-21.333v-298.667c0-11.776 9.557-21.333 21.333-21.333h213.333c11.776 0 21.333 9.557 21.333 21.333v448h-42.667v-128zM256 320h-170.667v256h170.667v-256zM341.333 618.667h42.667v-341.333h-42.667v341.333zM341.333 746.667h42.667v-85.333h-42.667v85.333zM661.333 618.667h-213.333c-11.776 0-21.333-9.557-21.333-21.333v-298.667c0-11.776 9.557-21.333 21.333-21.333h192v-85.333h-213.333v-42.667h234.667c11.776 0 21.333 9.557 21.333 21.333v426.667c0 11.776-9.557 21.333-21.333 21.333zM640 320h-170.667v256h170.667v-256zM960 618.667h-213.333c-11.776 0-21.333-9.557-21.333-21.333v-298.667c0-11.776 9.557-21.333 21.333-21.333h192v-85.333h-213.333v-42.667h234.667c11.776 0 21.333 9.557 21.333 21.333v426.667c0 11.776-9.557 21.333-21.333 21.333zM938.667 320h-170.667v256h170.667v-256z" />
<glyph unicode="&#xe937;" glyph-name="logo-dribbble" d="M512 960c-282.325 0-512-229.675-512-512s229.675-512 512-512 512 229.675 512 512-229.675 512-512 512zM980.821 437.632c-45.653 5.547-97.28 9.003-140.587 9.003-68.096 0-135.253-6.571-200.789-19.243-16.085 43.648-35.285 85.931-57.045 126.976 106.752 45.781 205.824 109.44 293.419 189.696 65.835-80.896 105.515-183.893 105.515-296.064 0-3.499-0.469-6.912-0.512-10.368zM847.317 775.765c-85.205-78.080-181.632-139.904-285.696-184.021-62.507 106.667-144.597 202.411-243.755 283.008 59.221 27.093 124.843 42.581 194.133 42.581 131.328 0 250.027-54.357 335.317-141.568zM276.48 853.333c99.883-78.208 182.229-172.331 244.821-277.461-110.933-41.429-229.163-63.872-350.635-63.872-40.576 0-81.451 2.987-121.899 7.851 22.016 142.379 107.947 263.552 227.712 333.483zM44.16 477.44c42.027-4.992 84.395-8.107 126.507-8.107 128.939 0 254.464 24.064 371.968 68.779 20.821-38.741 39.083-78.763 54.571-119.936-171.904-40.832-330.923-125.056-463.488-246.827-56.96 77.653-91.051 173.141-91.051 276.651 0 9.899 0.896 19.627 1.493 29.44zM160.853 137.643c128.64 118.827 283.435 200.064 450.773 239.104 32.384-99.413 49.707-204.544 49.707-312.747 0-20.736-1.067-41.045-2.304-61.397-46.293-15.317-95.616-23.936-147.029-23.936-139.776 0-265.088 61.739-351.147 158.976zM702.336 19.371c0.64 14.891 1.664 29.995 1.664 44.629 0 111.488-17.621 219.861-50.645 322.389 61.056 11.52 123.52 17.621 186.837 17.621 42.539 0 93.355-3.456 137.899-9.003-18.987-168.107-127.061-309.333-275.755-375.637z" />
<glyph unicode="&#xe938;" glyph-name="logo-facebook" d="M816.597 654.293c-4.053 4.48-9.813 7.040-15.829 7.040h-160.768v59.947c0 12.032 2.475 25.813 21.845 25.813h127.488c11.776 0 21.333 9.557 21.333 21.333v168.192c0 11.733-9.515 21.291-21.291 21.333l-184.789 0.555c-204.672 0-220.587-173.739-220.587-226.987v-70.187h-106.667c-11.776 0-21.333-9.557-21.333-21.333v-170.667c0-11.776 9.557-21.333 21.333-21.333h106.667v-490.667c0-11.776 9.557-21.333 21.333-21.333h213.333c11.776 0 21.333 9.557 21.333 21.333v490.667h142.976c10.923 0 20.096 8.235 21.205 19.115l17.792 170.667c0.64 6.016-1.323 11.989-5.376 16.512zM763.733 490.667h-145.067c-11.776 0-21.333-9.557-21.333-21.333v-490.667h-170.667v490.667c0 11.776-9.557 21.333-21.333 21.333h-106.667v128h106.667c11.776 0 21.333 9.557 21.333 21.333v91.52c0 68.821 23.125 184.32 177.877 184.32l163.456-0.512v-125.568h-106.155c-29.781 0-64.512-17.963-64.512-68.48v-81.28c0-11.776 9.557-21.333 21.333-21.333h158.421l-13.355-128z" />
<glyph unicode="&#xe939;" glyph-name="logo-flickr" d="M789.333 682.667c-129.408 0-234.667-105.259-234.667-234.667s105.259-234.667 234.667-234.667 234.667 105.259 234.667 234.667-105.259 234.667-234.667 234.667zM789.333 256c-105.856 0-192 86.101-192 192 0 105.856 86.144 192 192 192s192-86.144 192-192c0-105.899-86.144-192-192-192zM234.667 682.667c-129.408 0-234.667-105.259-234.667-234.667s105.259-234.667 234.667-234.667 234.667 105.259 234.667 234.667-105.259 234.667-234.667 234.667zM234.667 256c-105.856 0-192 86.101-192 192 0 105.856 86.144 192 192 192s192-86.144 192-192c0-105.899-86.144-192-192-192z" />
<glyph unicode="&#xe93a;" glyph-name="logo-google-drive" d="M1009.237 247.979c1.067 2.603 2.091 5.248 2.091 8.021 0 0.853-0.512 1.579-0.597 2.432-0.341 2.731-0.683 5.504-2.048 7.979l-333.483 596.864c-3.755 6.741-10.88 10.923-18.645 10.923h-301.867c-7.637 0-14.677-4.096-18.517-10.667 0 0 0-0.043 0-0.043l-333.312-578.517c-3.755-6.485-3.797-14.421-0.171-21.035l152.064-274.304c3.755-6.784 11.904-11.989 18.645-10.965h670.677c7.68 0 14.72 4.096 18.56 10.752l145.835 255.744c0 0 0 0.043 0 0.085l0.085 0.128c0.469 0.853 0.341 1.792 0.683 2.603zM644.053 831.531l309.675-554.197h-253.056c-39.424 70.699-246.059 441.088-309.504 554.197h252.885zM651.819 277.333h-296.021c59.733 104.917 119.808 210.432 149.547 262.485 59.349-106.283 118.059-211.584 146.475-262.485zM45.824 274.091l308.651 535.68c25.728-45.824 74.752-133.589 126.592-226.475-38.571-67.413-243.243-427.093-307.413-539.733l-127.829 230.528zM831.701 21.333h-621.611c24.619 43.221 71.253 125.269 121.429 213.333h621.781l-121.6-213.333z" />
<glyph unicode="&#xe93b;" glyph-name="logo-google-plus-1" d="M387.029 342.571c-19.669 6.016-40.491 9.216-62.080 9.472h-2.389c-101.76 0-187.691-62.379-187.691-136.235 0-78.507 75.947-140.032 172.928-140.032 157.312 0 190.336 74.069 190.336 136.235 0 8.747-1.067 17.835-3.328 27.435-9.557 37.419-40.875 58.752-84.395 88.448l-17.408 11.904c-1.877 1.152-3.84 2.133-5.973 2.773zM453.333 229.205c1.408-5.931 2.091-11.733 2.091-17.237 0-23.125 0-93.568-147.669-93.568-73.045 0-130.261 42.752-130.261 97.365 0 48.981 69.12 93.568 145.024 93.568v21.333l2.176-21.333c16.171-0.171 31.915-2.432 46.805-6.699l14.976-10.197c38.272-26.069 61.355-41.813 66.859-63.232zM584.917 917.333h-260.309c-30.763 0-61.952-5.376-92.715-16-103.381-35.541-175.616-124.629-175.616-216.619 0-120.704 88.491-215.467 209.451-229.163-0.171-2.645-0.256-5.248-0.256-7.851 0-10.752 1.365-21.333 4.139-31.616-112.853-8.491-212.011-67.755-251.989-152.875-11.691-24.875-17.621-50.261-17.621-75.392 0-25.003 6.4-49.109 18.987-71.765 27.904-49.877 86.357-88.235 164.565-107.947 39.125-9.899 81.067-14.933 124.715-14.933 39.509 0 77.312 5.12 112.341 15.275 112.555 32.64 185.259 116.693 185.259 214.101 0 90.923-30.464 147.925-108.629 203.264-26.539 18.773-46.336 41.941-50.859 49.92 0.299 8.875 3.413 14.635 33.92 38.4 57.728 45.184 89.515 105.131 89.515 168.875 0 41.216-9.259 79.829-26.496 112.043 2.731 1.152 5.333 2.688 7.851 4.437l58.112 42.112c14.848 10.624 20.992 29.44 15.317 46.805-5.547 17.323-21.547 28.928-39.68 28.928zM526.677 834.261h-20.821c-8.277 0-15.829-4.779-19.328-12.288s-2.347-16.384 2.944-22.699c24.32-29.184 37.76-70.4 37.76-116.224 0-50.304-25.984-98.347-73.088-135.253-40.96-31.915-50.389-45.995-50.389-76.245 1.28-24.917 46.976-65.024 68.907-80.555 66.901-47.317 90.624-91.435 90.624-168.405 0-77.952-60.629-145.92-154.496-173.141-66.347-19.2-147.371-16.981-214.741 0.043-66.731 16.811-115.669 47.829-137.771 87.381-9.045 16.128-13.611 33.323-13.611 50.944 0 18.816 4.565 38.059 13.611 57.259 36.352 77.355 133.291 129.365 244.651 129.365 7.595 0 14.635 4.053 18.432 10.624 3.84 6.571 3.84 14.677 0.085 21.291-7.595 13.355-11.307 26.88-11.307 41.344 0 7.211 0.939 14.507 2.944 22.272 1.579 6.272 0.213 12.928-3.712 18.133s-9.984 8.277-16.512 8.448c-111.189 2.517-191.957 81.664-191.957 188.16 0 74.069 60.373 146.56 146.816 176.299 26.325 9.088 52.864 13.653 78.891 13.653l259.755 1.579-57.685-41.984zM289.365 839.552c-0.043 0-0.128 0-0.171 0-26.368 0-50.688-11.179-68.395-31.445-25.515-29.099-36.437-73.941-29.952-123.008 11.563-88.32 75.776-161.835 144.768-163.84 27.136 0 51.029 10.88 68.992 31.403 25.728 29.312 37.205 76.203 30.72 125.397-11.563 88.448-74.496 159.36-143.659 161.451l-2.304 0.043zM393.045 672.512c4.821-36.651-3.072-71.808-20.523-91.733-9.899-11.349-22.016-16.853-37.205-16.853-45.781 1.323-93.483 60.587-102.187 126.72-4.821 36.907 2.347 69.419 19.755 89.344 9.771 11.221 21.973 16.896 36.267 16.896v21.333l1.707-21.333c46.72-1.451 93.525-58.368 102.187-124.373zM1002.667 576h-106.667v106.667c0 11.776-9.557 21.333-21.333 21.333h-85.333c-11.776 0-21.333-9.557-21.333-21.333v-106.667h-106.667c-11.776 0-21.333-9.557-21.333-21.333v-85.333c0-11.776 9.557-21.333 21.333-21.333h106.667v-106.667c0-11.776 9.557-21.333 21.333-21.333h85.333c11.776 0 21.333 9.557 21.333 21.333v106.667h106.667c11.776 0 21.333 9.557 21.333 21.333v85.333c0 11.776-9.557 21.333-21.333 21.333zM981.333 490.667h-106.667c-11.776 0-21.333-9.557-21.333-21.333v-106.667h-42.667v106.667c0 11.776-9.557 21.333-21.333 21.333h-106.667v42.667h106.667c11.776 0 21.333 9.557 21.333 21.333v106.667h42.667v-106.667c0-11.776 9.557-21.333 21.333-21.333h106.667v-42.667z" />
<glyph unicode="&#xe93c;" glyph-name="logo-google" d="M1000.96 350.677c-3.584 7.381-11.008 11.989-19.157 11.989h-281.387c-4.907 0-9.728-1.707-13.525-4.821l-104.235-85.333c-6.955-5.76-9.6-15.147-6.571-23.68 3.029-8.491 11.051-14.165 20.096-14.165h171.819v-151.68c0-5.12 0.341-9.515 0.64-13.355 0.043-0.683 0.128-1.323 0.171-2.005-2.603-1.237-7.467-3.285-16.427-6.229-50.859-13.355-115.541-17.579-175.317-12.501-187.008 15.531-337.067 159.445-373.461 358.229-32 175.061 47.616 347.221 193.621 418.688 80.128 39.168 162.432 46.507 241.749 21.077 51.456-16.427 99.115-45.013 141.952-85.12l-25.259-45.824c-4.139-7.552-3.371-16.896 2.005-23.595 5.333-6.784 14.251-9.771 22.528-7.211l62.123 17.664c3.541 0.981 6.827 2.901 9.387 5.504l95.957 97.877c4.181 4.309 6.357 10.069 6.101 16.085-0.299 5.973-3.115 11.52-7.723 15.275-93.952 77.824-231.040 122.453-376.107 122.453-100.651 0-195.499-21.035-274.261-60.885-173.739-87.893-289.707-261.376-295.381-441.856-6.485-203.435 112.384-357.675 225.792-434.176 84.437-57.003 196.992-87.083 325.419-87.083 130.048 0 266.88 31.403 375.424 86.229 7.211 3.584 11.733 10.965 11.733 19.029v209.835l59.947 77.184c4.992 6.4 5.931 15.104 2.347 22.4zM900.48 271.531c-2.901-3.755-4.48-8.363-4.48-13.056v-203.904c-100.821-48.341-225.536-75.904-344.491-75.904-119.893 0-224.171 27.563-301.568 79.744-103.979 70.187-212.949 211.413-207.061 397.483 5.248 165.205 112 324.181 272.043 405.163 71.765 36.267 162.347 56.277 255.019 56.277 125.995 0 244.949-35.584 330.539-98.304l-75.264-76.757-7.552-2.133 8.405 15.275c4.608 8.32 3.157 18.688-3.541 25.387-50.603 50.901-107.989 86.869-170.624 106.795-89.685 28.757-183.467 20.565-273.493-23.424-163.072-79.915-252.203-270.976-216.704-464.683 39.253-214.485 208.64-376.149 411.861-393.088 64.981-5.589 133.163-1.067 190.848 14.123 35.072 11.349 49.323 21.12 46.763 52.608-0.256 2.816-0.512 6.059-0.512 9.856v173.013c0 11.776-9.557 21.333-21.333 21.333h-133.419l52.139 42.667h230.144l-37.717-48.469z" />
<glyph unicode="&#xe93d;" glyph-name="logo-icq" d="M983.168 482.176c-18.347 27.563-51.285 57.813-107.691 66.091 65.152 64.896 73.771 114.517 67.243 146.261-7.211 35.285-34.859 62.208-75.819 73.771-35.584 10.069-82.773 7.851-123.563-14.251-0.427 105.387-40.149 155.051-76.032 178.347-48.128 31.232-114.005 30.549-171.861-1.963-52.011-29.227-83.499-77.824-82.091-126.848 0.683-23.125 2.304-46.037 4.352-68.352-30.507 42.027-75.733 84.608-123.733 94.123-24.576 4.779-47.445 0.256-66.347-13.099-32.469-23.125-52.565-61.653-53.803-103.168-0.853-29.483 8.021-70.272 43.349-116.907-8.107 0.469-16.427 0.597-25.344-0.085-132.523-9.429-191.829-92.459-191.829-170.581 0-31.061 15.317-58.965 44.288-80.768 23.296-17.536 53.76-29.269 85.035-34.645-17.152-18.048-28.544-39.552-32.469-63.104-6.229-37.504 7.765-73.003 37.376-95.061 19.883-14.805 45.013-22.187 73.557-22.187 16 0 33.152 2.389 51.072 7.040-22.272-55.552-8.32-97.792 4.736-120.704 27.819-48.939 87.595-80.085 150.144-80.085 6.997 0 13.995 0.384 20.992 1.195 67.541 7.637 117.76 50.261 137.771 116.864 4.139 13.781 8.021 27.136 11.52 39.296 22.101-31.573 51.883-51.413 86.443-55.68 4.651-0.597 9.344-0.853 13.995-0.853 41.429 0 81.749 22.485 105.515 59.904 21.632 34.133 26.709 74.581 16.341 116.523 20.011-8.448 39.808-12.715 59.307-12.715 8.619 0 17.195 0.853 25.685 2.475 65.408 12.8 100.907 69.845 110.208 87.040 17.579 32.512 26.581 124.544-18.347 192.128zM855.296 727.211c11.861-3.413 40.064-14.080 45.653-41.259 7.211-35.413-25.216-85.547-89.173-138.069-89.856-19.925-151.211-34.944-190.208-45.056-5.76 10.197-12.416 19.755-20.608 27.947 33.792 40.021 86.485 103.253 134.955 164.395 33.621 35.712 85.419 41.685 119.381 32.043zM510.677 354.859c-47.061 0-85.333 38.272-85.333 85.333s38.272 85.333 85.333 85.333 85.333-38.272 85.333-85.333-38.272-85.333-85.333-85.333zM516.352 893.184c43.307 24.32 93.483 25.643 127.744 3.413 43.307-28.117 62.336-89.899 55.211-178.859-48.555-61.099-100.821-123.691-133.547-162.475-16.768 8.021-35.285 12.928-55.083 12.928-8.32 0-16.427-0.939-24.277-2.475-9.6 47.659-27.605 142.293-30.379 239.019-0.939 33.152 22.144 67.029 60.331 88.448zM252.373 781.397c9.344 6.699 20.224 8.661 33.28 6.101 33.835-6.741 77.355-44.245 108.288-93.312 25.131-40.021 42.368-102.485 51.797-144.299-22.656-13.44-40.875-33.408-51.755-57.643-11.861 9.557-23.253 19.413-34.133 29.269-16.128 14.592-32.512 29.397-50.773 41.941v0.043c-78.251 62.805-93.568 115.328-92.587 148.395 0.811 28.16 14.208 54.187 35.883 69.504zM42.667 425.515c0 71.211 59.733 121.472 152.192 128.043 60.971 3.883 94.379-25.643 136.32-63.659 16-14.507 33.067-29.227 52.139-43.008-0.085-2.261-0.683-4.437-0.683-6.699 0-9.643 1.237-18.944 3.285-27.989-38.315-11.861-99.157-30.891-183.936-58.197-40.021-11.733-98.091-0.768-132.096 24.832-18.048 13.568-27.221 29.269-27.221 46.677zM159.701 186.155c-16.512 12.331-24.277 32.427-20.736 53.845 5.333 32.299 33.621 59.648 75.563 73.173 87.637 28.245 149.845 47.659 187.861 59.435 3.712-6.016 8.021-11.477 12.672-16.768-15.275-20.395-37.291-49.408-68.053-89.941l-53.845-70.912c-56.32-26.624-104.832-30.123-133.461-8.832zM531.541 66.304c-20.352-67.797-72.448-83.456-101.675-86.741-52.48-5.973-106.837 18.219-129.237 57.557-20.651 36.352-12.672 80.384 23.040 127.488l57.344 75.563c30.123 39.68 52.011 68.523 67.328 88.917 18.56-10.453 39.595-16.896 62.336-16.896 4.139 0 8.021 0.853 12.032 1.195l33.792-160.299c-3.371-12.117-13.269-47.915-24.96-86.784zM753.877 119.595c-17.621-27.776-48.256-43.435-78.208-39.595-34.347 4.224-61.696 32.256-76.459 76.544l-35.2 167.595c18.517 8.576 34.432 21.504 46.891 37.333 28.416-22.357 73.6-58.667 132.48-108.501 29.696-48.427 33.621-96.939 10.496-133.376zM963.925 310.357c-14.592-26.88-43.52-58.197-80.939-65.536-33.408-6.571-70.272 6.357-109.184 38.272-64.725 54.955-113.664 94.080-142.336 116.523 4.352 12.8 7.211 26.283 7.211 40.576 0 7.68-0.939 15.104-2.261 22.443 39.211 10.069 99.797 24.832 187.776 44.288 57.045 5.419 98.475-10.709 123.477-48.341 34.56-52.053 26.965-128.469 16.256-148.224z" />
<glyph unicode="&#xe93e;" glyph-name="logo-instagram" d="M832 960h-640c-105.856 0-192-86.144-192-192v-640c0-105.899 86.144-192 192-192h640c105.856 0 192 86.101 192 192v640c0 105.856-86.144 192-192 192zM981.333 768v-149.333h-279.083c-46.891 52.224-114.688 85.333-190.251 85.333s-143.36-33.109-190.251-85.333h-23.083v298.667h533.333c82.347 0 149.333-66.987 149.333-149.333zM512 661.333c117.632 0 213.333-95.701 213.333-213.333s-95.701-213.333-213.333-213.333-213.333 95.701-213.333 213.333 95.701 213.333 213.333 213.333zM128 902.315c13.312 6.357 27.563 10.667 42.667 12.843v-296.491h-42.667v283.648zM213.333 917.333h42.667v-298.667h-42.667v298.667zM85.333 872.192v-253.525h-42.667v149.333c0 40.533 16.341 77.227 42.667 104.192zM832-21.333h-640c-82.347 0-149.333 66.987-149.333 149.333v448h247.979c-21.888-37.76-34.645-81.365-34.645-128 0-141.227 114.816-256 256-256s256 114.773 256 256c0 46.635-12.757 90.24-34.645 128h247.979v-448c0-82.347-66.987-149.333-149.333-149.333zM789.333 661.333h128c11.776 0 21.333 9.557 21.333 21.333v128c0 11.776-9.557 21.333-21.333 21.333h-128c-11.776 0-21.333-9.557-21.333-21.333v-128c0-11.776 9.557-21.333 21.333-21.333zM810.667 789.333h85.333v-85.333h-85.333v85.333z" />
<glyph unicode="&#xe93f;" glyph-name="logo-linkedin" d="M171.52 912.768c-74.112 0-130.005-53.419-130.005-124.245 0-71.296 55.979-127.189 127.488-127.189h1.237c74.155 0 130.048 54.016 130.048 126.208-1.664 72.576-55.808 125.227-128.768 125.227zM170.24 704h-1.237c-55.125 0-84.821 43.563-84.821 84.523 0 48 35.925 81.579 87.339 81.579 57.856 0 85.205-43.307 86.144-83.072-0.043-41.259-30.080-83.029-87.424-83.029zM277.333 618.667h-213.333c-11.776 0-21.333-9.557-21.333-21.333v-554.667c0-11.776 9.557-21.333 21.333-21.333h213.333c11.776 0 21.333 9.557 21.333 21.333v554.667c0 11.776-9.557 21.333-21.333 21.333zM256 64h-170.667v512h170.667v-512zM744.021 616.875c-64.256 0-115.157-22.4-146.688-41.344v21.803c0 11.776-9.557 21.333-21.333 21.333h-213.333c-5.888 0-11.477-2.432-15.531-6.699-4.011-4.267-6.101-10.027-5.76-15.872 2.432-41.515-0.043-548.224-0.043-553.344 0-5.675 2.219-11.136 6.229-15.147s9.429-6.272 15.104-6.272h213.333c11.776 0 21.333 9.557 21.333 21.333v298.667c0 35.285 28.715 64 64 64s64-28.715 64-64v-298.667c0-11.776 9.557-21.333 21.333-21.333h213.333c11.776 0 21.333 9.557 21.333 21.333v283.904c0 179.072-90.923 290.304-237.312 290.304zM938.667 64h-170.667v277.333c0 58.795-47.872 106.667-106.667 106.667s-106.667-47.872-106.667-106.667v-277.333h-170.581c0.384 88.576 1.792 417.493 0.427 512h170.155v-42.027c0-8.491 5.035-16.213 12.843-19.541 7.765-3.371 16.811-1.835 23.040 3.968 0.597 0.555 60.971 55.851 153.515 55.851 121.856 0 194.645-92.587 194.645-247.637v-262.613z" />
<glyph unicode="&#xe940;" glyph-name="logo-magento" d="M929.195 696.405l-405.675 260.224c-7.040 4.48-16 4.48-23.083 0l-404.992-260.224c-6.101-3.925-9.771-10.709-9.771-17.963v-460.843c0-6.571 3.029-12.843 8.277-16.896l85.333-66.176c6.443-4.949 15.147-5.888 22.443-2.304s11.947 11.051 11.947 19.157v451.797l298.325 201.301 298.965-201.344v-451.755c0-8.107 4.608-15.573 11.947-19.157 2.987-1.451 6.229-2.176 9.387-2.176 4.651 0 9.259 1.493 13.056 4.437l85.333 66.176c5.248 4.053 8.277 10.283 8.277 16.896v460.885c0.043 7.253-3.669 14.037-9.771 17.963zM896.341 228.053l-42.667-33.109v419.541c0 7.083-3.541 13.739-9.429 17.707l-320.341 215.723c-3.584 2.432-7.723 3.627-11.904 3.627s-8.32-1.195-11.947-3.669l-319.659-215.723c-5.888-3.968-9.387-10.581-9.387-17.664v-419.584l-42.667 33.109v438.784l383.659 246.528 384.341-246.528v-438.741zM587.349 654.805c-6.571 3.883-14.763 4.053-21.504 0.299-6.699-3.797-10.837-10.923-10.837-18.603v-523.221l-49.579-27.221-35.755 25.6v524.843c0 7.68-4.139 14.805-10.837 18.603-6.699 3.755-14.891 3.584-21.504-0.299l-128-77.141c-6.4-3.925-10.325-10.837-10.325-18.304v-480.768c0-7.168 3.584-13.867 9.6-17.792l183.595-121.301c3.499-2.347 7.595-3.499 11.733-3.499 3.797 0 7.637 1.024 11.051 3.072l200.405 121.301c6.4 3.883 10.283 10.795 10.283 18.261v480.725c0 7.467-3.925 14.379-10.325 18.304l-128 77.141zM683.008 90.667l-178.603-108.075-162.731 107.52v457.216l85.333 51.413v-498.091c0-6.869 3.328-13.355 8.917-17.408l55.595-39.637c6.656-4.779 15.488-5.291 22.656-1.323l72.405 39.68c6.827 3.755 11.093 10.923 11.093 18.688v498.091l85.333-51.413v-456.661z" />
<glyph unicode="&#xe941;" glyph-name="logo-path" d="M941.525 781.227c-93.867 111.957-257.835 178.773-438.613 178.773-86.955 0-171.947-15.445-245.803-44.757-135.851-53.717-224.299-157.397-249.173-292.053-23.637-128 6.144-253.483 77.696-327.552 5.76-5.931 14.507-8.149 22.357-5.291 11.691 4.096 23.765 9.6 35.797 16.341 31.744 17.92 57.259 42.027 81.92 65.365 10.581 9.941 21.12 19.968 32.128 29.397 4.309 3.712 6.997 8.96 7.381 14.592 0.427 5.675-1.408 11.264-5.12 15.573-40.704 47.104-52.864 101.205-35.115 156.331 24.661 76.715 102.315 143.019 193.237 164.907 25.984 6.272 53.76 9.429 82.603 9.429 115.968 0 257.024-55.125 292.693-176.213 15.147-51.456 7.765-100.821-20.779-139.051-40.789-54.485-119.083-78.037-199.808-59.136l-8.064 1.792c-4.267 0.981-10.197 2.219-10.197 3.669v254.421c0 11.947 0 34.261-29.227 36.053l-5.376 0.469c-11.605 1.408-23.211 2.603-34.944 3.499-43.819 3.413-90.411 4.437-126.72-1.792l-4.736-0.768c-24.064-3.456-28.8-16.043-28.8-36.565 0-82.261 1.792-265.003 2.688-359.851 0.341-34.176 0.555-56.789 0.555-58.581l-0.171-4.736c-1.877-52.096-8.832-81.109-20.565-86.315-14.507-6.4-31.147 1.579-49.792 10.88-12.501 6.229-25.429 12.629-39.723 15.659-6.613 1.323-13.568-0.469-18.645-4.949-5.077-4.523-7.68-11.221-7.040-18.005 1.109-11.307-0.171-27.221-1.579-44.032-3.968-48.811-9.387-115.584 44.587-138.965 35.84-15.573 73.472-23.765 108.843-23.765 24.107 0 47.36 3.755 69.077 11.136 112.171 37.973 155.52 154.283 151.211 257.28 25.813-5.461 52.181-8.235 78.72-8.235 150.059 0 287.573 85.675 350.336 218.197 55.211 116.608 34.347 264.021-51.84 366.848zM954.795 432.64c-54.912-115.883-180.224-193.792-311.808-193.792-32.768 0-65.237 4.736-96.555 14.123-6.912 2.005-14.464 0.469-20.011-4.267-5.504-4.779-8.235-11.947-7.211-19.115 12.843-92.672-19.157-207.957-119.851-242.048-43.605-14.848-96.597-10.624-147.243 11.392-24.021 10.411-22.955 48.085-19.029 96.341 0.512 6.315 1.024 12.544 1.408 18.603 1.323-0.683 2.688-1.323 4.053-2.005 24.533-12.16 57.045-24.576 86.016-11.648 42.112 18.603 44.629 87.040 45.995 123.776l0.171 4.565c0.043 0.896-0.171 24.448-0.512 60.715-0.896 93.013-2.603 270.805-2.688 354.901 32.256 5.333 74.752 4.139 114.219 1.067 10.112-0.853 20.181-1.792 30.251-2.987v-248.917c0-36.096 28.672-42.069 44.117-45.355l7.083-1.536c97.152-22.955 192.811 6.955 243.755 75.093 36.779 49.195 46.592 111.872 27.563 176.683-41.813 142.037-202.283 206.805-333.611 206.805-32.171 0-63.317-3.584-92.587-10.581-104.917-25.387-194.901-103.083-223.915-193.408-20.139-62.635-9.301-126.080 30.379-180.779-6.187-5.675-12.288-11.435-18.389-17.152-23.851-22.571-46.336-43.904-73.515-59.179-5.376-3.029-10.752-5.76-16-8.107-54.4 64.896-76.715 172.715-56.96 279.68 22.101 119.68 101.248 212.053 222.891 260.139 68.907 27.264 148.48 41.685 230.101 41.685 168.32 0 320.085-61.184 405.931-163.541 75.691-90.24 94.165-219.349 45.952-321.152z" />
<glyph unicode="&#xe942;" glyph-name="logo-paypal" d="M370.133 498.517h97.664c24.875 0 50.347 7.723 73.685 22.443 8.363 5.333 16.299 11.264 23.637 18.176 21.333 20.096 36.011 44.8 42.197 70.571 11.648 41.6-0.939 81.707-32.896 104.619-16.341 11.776-36.309 18.005-57.771 18.005h-101.973c-9.899 0-18.56-6.869-20.779-16.512l-44.629-191.104c-1.493-6.357 0-13.056 4.053-18.091 4.139-5.163 10.283-8.107 16.811-8.107zM431.701 689.621h85.035c12.459 0 23.765-3.456 32.853-9.984 17.237-12.373 23.467-34.219 16.512-59.221-4.395-18.176-15.104-36.011-30.165-50.176-5.376-5.035-11.264-9.429-17.28-13.269-16.427-10.325-34.005-15.787-50.859-15.787h-70.741l34.645 148.437zM297.771 123.221l59.691 239.445h132.053c157.227 0 280.277 97.408 313.515 248.149 20.352 92.203-7.68 151.723-34.731 185.387-39.509 49.109-104.96 78.464-175.104 78.464h-354.731c-9.899 0-18.517-6.827-20.736-16.512l-169.6-724.949c-1.493-6.315 0-12.971 4.053-18.091 4.053-5.163 10.197-8.064 16.725-8.064h208.171c9.771 0 18.304 6.656 20.693 16.171zM95.787 149.717l159.616 682.283h337.792c57.344 0 110.379-23.381 141.824-62.507 30.421-37.845 39.552-89.557 26.325-149.461-28.715-130.432-135.424-214.699-271.829-214.699h-148.693c-9.771 0-18.347-6.656-20.693-16.171l-59.691-239.445h-164.651zM913.92 642.475c-5.76 10.24-18.773 13.952-29.056 8.107-10.24-5.76-13.909-18.773-8.107-29.056 20.011-35.541 24.491-79.36 13.269-130.219-28.16-127.872-132.523-211.84-266.027-213.845-11.435-0.213-103.936-0.128-140.203-0.128h-13.355c-9.771 0-18.304-6.656-20.693-16.085l-60.629-240.213h-164.864l8.661 38.443c2.603 11.52-4.651 22.955-16.128 25.515-11.648 2.645-22.912-4.608-25.515-16.085l-14.507-64.469c-1.408-6.357 0.085-12.971 4.139-18.005 4.053-5.077 10.197-8.021 16.683-8.021h208.128c9.771 0 18.304 6.613 20.693 16.043l60.629 240.128c38.528 0 126.72-0.085 137.728 0.171 153.856 2.304 274.347 99.413 306.944 247.296 13.355 60.629 7.211 116.053-17.792 160.427z" />
<glyph unicode="&#xe943;" glyph-name="logo-photobucket" d="M768 426.667c0 141.184-114.816 256-256 256-11.776 0-21.333-9.557-21.333-21.333s9.557-21.333 21.333-21.333c117.632 0 213.333-95.701 213.333-213.333 0-11.776 9.557-21.333 21.333-21.333s21.333 9.557 21.333 21.333zM960 746.667h-277.717c-50.816 27.179-108.757 42.667-170.283 42.667s-119.467-15.488-170.283-42.667h-85.717v64c0 11.776-9.557 21.333-21.333 21.333h-170.667c-11.776 0-21.333-9.557-21.333-21.333v-67.925c-24.789-8.832-42.667-32.341-42.667-60.075v-512c0-35.285 28.715-64 64-64h277.717c50.816-27.179 108.757-42.667 170.283-42.667s119.467 15.488 170.283 42.667h277.717c35.285 0 64 28.715 64 64v512c0 35.285-28.715 64-64 64zM85.333 789.333h128v-42.667h-128v42.667zM64 149.333c-11.776 0-21.333 9.6-21.333 21.333v512c0 11.733 9.557 21.333 21.333 21.333h214.784c-79.019-66.603-129.451-166.144-129.451-277.333 0-111.147 50.432-210.731 129.451-277.333h-214.784zM192 426.667c0 176.427 143.531 320 320 320s320-143.573 320-320c0-176.469-143.531-320-320-320s-320 143.531-320 320zM981.333 170.667c0-11.733-9.557-21.333-21.333-21.333h-214.784c79.061 66.603 129.451 166.187 129.451 277.333 0 111.189-50.432 210.731-129.451 277.333h214.784c11.776 0 21.333-9.6 21.333-21.333v-512z" />
</font>
</defs>
</svg>
